%TF.GenerationSoftware,KiCad,Pcbnew,6.0.7+dfsg-1~bpo11+1*%
%TF.ProjectId,wiscale-mod,77697363-616c-4652-9d6d-6f642e6b6963,rev?*%
%TF.SameCoordinates,Original*%
%TF.FileFunction,Drillmap*%
%TF.FilePolarity,Positive*%
%FSLAX45Y45*%
G04 Gerber Fmt 4.5, Leading zero omitted, Abs format (unit mm)*
%MOMM*%
%LPD*%
G01*
G04 APERTURE LIST*
%ADD10C,0.150000*%
%ADD11C,0.200000*%
%ADD12C,0.320000*%
G04 APERTURE END LIST*
D10*
X20160000Y-7620000D02*
X10160000Y-7620000D01*
X10160000Y-12620000D02*
X20160000Y-12620000D01*
X20160000Y-12620000D02*
X20160000Y-7620000D01*
X10160000Y-7620000D02*
X10160000Y-12620000D01*
D11*
D10*
X15585000Y-11485000D02*
X15735000Y-11635000D01*
X15735000Y-11485000D02*
X15585000Y-11635000D01*
X15585000Y-12085000D02*
X15735000Y-12235000D01*
X15735000Y-12085000D02*
X15585000Y-12235000D01*
D12*
X12503000Y-8120000D02*
G75*
G03*
X12503000Y-8120000I-160000J0D01*
G01*
X18064000Y-8120000D02*
G75*
G03*
X18064000Y-8120000I-160000J0D01*
G01*
D11*
X10410119Y-12937976D02*
X10410119Y-12737976D01*
X10457738Y-12737976D01*
X10486310Y-12747500D01*
X10505357Y-12766548D01*
X10514881Y-12785595D01*
X10524405Y-12823690D01*
X10524405Y-12852262D01*
X10514881Y-12890357D01*
X10505357Y-12909405D01*
X10486310Y-12928452D01*
X10457738Y-12937976D01*
X10410119Y-12937976D01*
X10610119Y-12937976D02*
X10610119Y-12804643D01*
X10610119Y-12842738D02*
X10619643Y-12823690D01*
X10629167Y-12814167D01*
X10648214Y-12804643D01*
X10667262Y-12804643D01*
X10733929Y-12937976D02*
X10733929Y-12804643D01*
X10733929Y-12737976D02*
X10724405Y-12747500D01*
X10733929Y-12757024D01*
X10743452Y-12747500D01*
X10733929Y-12737976D01*
X10733929Y-12757024D01*
X10857738Y-12937976D02*
X10838690Y-12928452D01*
X10829167Y-12909405D01*
X10829167Y-12737976D01*
X10962500Y-12937976D02*
X10943452Y-12928452D01*
X10933929Y-12909405D01*
X10933929Y-12737976D01*
X11191071Y-12937976D02*
X11191071Y-12737976D01*
X11257738Y-12880833D01*
X11324405Y-12737976D01*
X11324405Y-12937976D01*
X11505357Y-12937976D02*
X11505357Y-12833214D01*
X11495833Y-12814167D01*
X11476786Y-12804643D01*
X11438690Y-12804643D01*
X11419643Y-12814167D01*
X11505357Y-12928452D02*
X11486309Y-12937976D01*
X11438690Y-12937976D01*
X11419643Y-12928452D01*
X11410119Y-12909405D01*
X11410119Y-12890357D01*
X11419643Y-12871309D01*
X11438690Y-12861786D01*
X11486309Y-12861786D01*
X11505357Y-12852262D01*
X11600595Y-12804643D02*
X11600595Y-13004643D01*
X11600595Y-12814167D02*
X11619643Y-12804643D01*
X11657738Y-12804643D01*
X11676786Y-12814167D01*
X11686309Y-12823690D01*
X11695833Y-12842738D01*
X11695833Y-12899881D01*
X11686309Y-12918928D01*
X11676786Y-12928452D01*
X11657738Y-12937976D01*
X11619643Y-12937976D01*
X11600595Y-12928452D01*
X11781548Y-12918928D02*
X11791071Y-12928452D01*
X11781548Y-12937976D01*
X11772024Y-12928452D01*
X11781548Y-12918928D01*
X11781548Y-12937976D01*
X11781548Y-12814167D02*
X11791071Y-12823690D01*
X11781548Y-12833214D01*
X11772024Y-12823690D01*
X11781548Y-12814167D01*
X11781548Y-12833214D01*
D10*
X10002500Y-13192500D02*
X10152500Y-13342500D01*
X10152500Y-13192500D02*
X10002500Y-13342500D01*
D11*
X10514881Y-13357976D02*
X10400595Y-13357976D01*
X10457738Y-13357976D02*
X10457738Y-13157976D01*
X10438690Y-13186548D01*
X10419643Y-13205595D01*
X10400595Y-13215119D01*
X10600595Y-13338928D02*
X10610119Y-13348452D01*
X10600595Y-13357976D01*
X10591071Y-13348452D01*
X10600595Y-13338928D01*
X10600595Y-13357976D01*
X10791071Y-13157976D02*
X10695833Y-13157976D01*
X10686310Y-13253214D01*
X10695833Y-13243690D01*
X10714881Y-13234167D01*
X10762500Y-13234167D01*
X10781548Y-13243690D01*
X10791071Y-13253214D01*
X10800595Y-13272262D01*
X10800595Y-13319881D01*
X10791071Y-13338928D01*
X10781548Y-13348452D01*
X10762500Y-13357976D01*
X10714881Y-13357976D01*
X10695833Y-13348452D01*
X10686310Y-13338928D01*
X10924405Y-13157976D02*
X10943452Y-13157976D01*
X10962500Y-13167500D01*
X10972024Y-13177024D01*
X10981548Y-13196071D01*
X10991071Y-13234167D01*
X10991071Y-13281786D01*
X10981548Y-13319881D01*
X10972024Y-13338928D01*
X10962500Y-13348452D01*
X10943452Y-13357976D01*
X10924405Y-13357976D01*
X10905357Y-13348452D01*
X10895833Y-13338928D01*
X10886310Y-13319881D01*
X10876786Y-13281786D01*
X10876786Y-13234167D01*
X10886310Y-13196071D01*
X10895833Y-13177024D01*
X10905357Y-13167500D01*
X10924405Y-13157976D01*
X11114881Y-13157976D02*
X11133929Y-13157976D01*
X11152976Y-13167500D01*
X11162500Y-13177024D01*
X11172024Y-13196071D01*
X11181548Y-13234167D01*
X11181548Y-13281786D01*
X11172024Y-13319881D01*
X11162500Y-13338928D01*
X11152976Y-13348452D01*
X11133929Y-13357976D01*
X11114881Y-13357976D01*
X11095833Y-13348452D01*
X11086310Y-13338928D01*
X11076786Y-13319881D01*
X11067262Y-13281786D01*
X11067262Y-13234167D01*
X11076786Y-13196071D01*
X11086310Y-13177024D01*
X11095833Y-13167500D01*
X11114881Y-13157976D01*
X11267262Y-13357976D02*
X11267262Y-13224643D01*
X11267262Y-13243690D02*
X11276786Y-13234167D01*
X11295833Y-13224643D01*
X11324405Y-13224643D01*
X11343452Y-13234167D01*
X11352976Y-13253214D01*
X11352976Y-13357976D01*
X11352976Y-13253214D02*
X11362500Y-13234167D01*
X11381548Y-13224643D01*
X11410119Y-13224643D01*
X11429167Y-13234167D01*
X11438690Y-13253214D01*
X11438690Y-13357976D01*
X11533928Y-13357976D02*
X11533928Y-13224643D01*
X11533928Y-13243690D02*
X11543452Y-13234167D01*
X11562500Y-13224643D01*
X11591071Y-13224643D01*
X11610119Y-13234167D01*
X11619643Y-13253214D01*
X11619643Y-13357976D01*
X11619643Y-13253214D02*
X11629167Y-13234167D01*
X11648214Y-13224643D01*
X11676786Y-13224643D01*
X11695833Y-13234167D01*
X11705357Y-13253214D01*
X11705357Y-13357976D01*
X12095833Y-13148452D02*
X11924405Y-13405595D01*
X12352976Y-13157976D02*
X12372024Y-13157976D01*
X12391071Y-13167500D01*
X12400595Y-13177024D01*
X12410119Y-13196071D01*
X12419643Y-13234167D01*
X12419643Y-13281786D01*
X12410119Y-13319881D01*
X12400595Y-13338928D01*
X12391071Y-13348452D01*
X12372024Y-13357976D01*
X12352976Y-13357976D01*
X12333928Y-13348452D01*
X12324405Y-13338928D01*
X12314881Y-13319881D01*
X12305357Y-13281786D01*
X12305357Y-13234167D01*
X12314881Y-13196071D01*
X12324405Y-13177024D01*
X12333928Y-13167500D01*
X12352976Y-13157976D01*
X12505357Y-13338928D02*
X12514881Y-13348452D01*
X12505357Y-13357976D01*
X12495833Y-13348452D01*
X12505357Y-13338928D01*
X12505357Y-13357976D01*
X12638690Y-13157976D02*
X12657738Y-13157976D01*
X12676786Y-13167500D01*
X12686309Y-13177024D01*
X12695833Y-13196071D01*
X12705357Y-13234167D01*
X12705357Y-13281786D01*
X12695833Y-13319881D01*
X12686309Y-13338928D01*
X12676786Y-13348452D01*
X12657738Y-13357976D01*
X12638690Y-13357976D01*
X12619643Y-13348452D01*
X12610119Y-13338928D01*
X12600595Y-13319881D01*
X12591071Y-13281786D01*
X12591071Y-13234167D01*
X12600595Y-13196071D01*
X12610119Y-13177024D01*
X12619643Y-13167500D01*
X12638690Y-13157976D01*
X12886309Y-13157976D02*
X12791071Y-13157976D01*
X12781548Y-13253214D01*
X12791071Y-13243690D01*
X12810119Y-13234167D01*
X12857738Y-13234167D01*
X12876786Y-13243690D01*
X12886309Y-13253214D01*
X12895833Y-13272262D01*
X12895833Y-13319881D01*
X12886309Y-13338928D01*
X12876786Y-13348452D01*
X12857738Y-13357976D01*
X12810119Y-13357976D01*
X12791071Y-13348452D01*
X12781548Y-13338928D01*
X12991071Y-13357976D02*
X13029167Y-13357976D01*
X13048214Y-13348452D01*
X13057738Y-13338928D01*
X13076786Y-13310357D01*
X13086309Y-13272262D01*
X13086309Y-13196071D01*
X13076786Y-13177024D01*
X13067262Y-13167500D01*
X13048214Y-13157976D01*
X13010119Y-13157976D01*
X12991071Y-13167500D01*
X12981548Y-13177024D01*
X12972024Y-13196071D01*
X12972024Y-13243690D01*
X12981548Y-13262738D01*
X12991071Y-13272262D01*
X13010119Y-13281786D01*
X13048214Y-13281786D01*
X13067262Y-13272262D01*
X13076786Y-13262738D01*
X13086309Y-13243690D01*
X13276786Y-13357976D02*
X13162500Y-13357976D01*
X13219643Y-13357976D02*
X13219643Y-13157976D01*
X13200595Y-13186548D01*
X13181548Y-13205595D01*
X13162500Y-13215119D01*
X13352976Y-13157976D02*
X13352976Y-13196071D01*
X13429167Y-13157976D02*
X13429167Y-13196071D01*
X13724405Y-13434167D02*
X13714881Y-13424643D01*
X13695833Y-13396071D01*
X13686309Y-13377024D01*
X13676786Y-13348452D01*
X13667262Y-13300833D01*
X13667262Y-13262738D01*
X13676786Y-13215119D01*
X13686309Y-13186548D01*
X13695833Y-13167500D01*
X13714881Y-13138928D01*
X13724405Y-13129405D01*
X13791071Y-13177024D02*
X13800595Y-13167500D01*
X13819643Y-13157976D01*
X13867262Y-13157976D01*
X13886309Y-13167500D01*
X13895833Y-13177024D01*
X13905357Y-13196071D01*
X13905357Y-13215119D01*
X13895833Y-13243690D01*
X13781548Y-13357976D01*
X13905357Y-13357976D01*
X14143452Y-13357976D02*
X14143452Y-13157976D01*
X14229167Y-13357976D02*
X14229167Y-13253214D01*
X14219643Y-13234167D01*
X14200595Y-13224643D01*
X14172024Y-13224643D01*
X14152976Y-13234167D01*
X14143452Y-13243690D01*
X14352976Y-13357976D02*
X14333928Y-13348452D01*
X14324405Y-13338928D01*
X14314881Y-13319881D01*
X14314881Y-13262738D01*
X14324405Y-13243690D01*
X14333928Y-13234167D01*
X14352976Y-13224643D01*
X14381548Y-13224643D01*
X14400595Y-13234167D01*
X14410119Y-13243690D01*
X14419643Y-13262738D01*
X14419643Y-13319881D01*
X14410119Y-13338928D01*
X14400595Y-13348452D01*
X14381548Y-13357976D01*
X14352976Y-13357976D01*
X14533928Y-13357976D02*
X14514881Y-13348452D01*
X14505357Y-13329405D01*
X14505357Y-13157976D01*
X14686309Y-13348452D02*
X14667262Y-13357976D01*
X14629167Y-13357976D01*
X14610119Y-13348452D01*
X14600595Y-13329405D01*
X14600595Y-13253214D01*
X14610119Y-13234167D01*
X14629167Y-13224643D01*
X14667262Y-13224643D01*
X14686309Y-13234167D01*
X14695833Y-13253214D01*
X14695833Y-13272262D01*
X14600595Y-13291309D01*
X14772024Y-13348452D02*
X14791071Y-13357976D01*
X14829167Y-13357976D01*
X14848214Y-13348452D01*
X14857738Y-13329405D01*
X14857738Y-13319881D01*
X14848214Y-13300833D01*
X14829167Y-13291309D01*
X14800595Y-13291309D01*
X14781548Y-13281786D01*
X14772024Y-13262738D01*
X14772024Y-13253214D01*
X14781548Y-13234167D01*
X14800595Y-13224643D01*
X14829167Y-13224643D01*
X14848214Y-13234167D01*
X14924405Y-13434167D02*
X14933928Y-13424643D01*
X14952976Y-13396071D01*
X14962500Y-13377024D01*
X14972024Y-13348452D01*
X14981548Y-13300833D01*
X14981548Y-13262738D01*
X14972024Y-13215119D01*
X14962500Y-13186548D01*
X14952976Y-13167500D01*
X14933928Y-13138928D01*
X14924405Y-13129405D01*
X15286309Y-13434167D02*
X15276786Y-13424643D01*
X15257738Y-13396071D01*
X15248214Y-13377024D01*
X15238690Y-13348452D01*
X15229167Y-13300833D01*
X15229167Y-13262738D01*
X15238690Y-13215119D01*
X15248214Y-13186548D01*
X15257738Y-13167500D01*
X15276786Y-13138928D01*
X15286309Y-13129405D01*
X15362500Y-13224643D02*
X15362500Y-13357976D01*
X15362500Y-13243690D02*
X15372024Y-13234167D01*
X15391071Y-13224643D01*
X15419643Y-13224643D01*
X15438690Y-13234167D01*
X15448214Y-13253214D01*
X15448214Y-13357976D01*
X15572024Y-13357976D02*
X15552976Y-13348452D01*
X15543452Y-13338928D01*
X15533928Y-13319881D01*
X15533928Y-13262738D01*
X15543452Y-13243690D01*
X15552976Y-13234167D01*
X15572024Y-13224643D01*
X15600595Y-13224643D01*
X15619643Y-13234167D01*
X15629167Y-13243690D01*
X15638690Y-13262738D01*
X15638690Y-13319881D01*
X15629167Y-13338928D01*
X15619643Y-13348452D01*
X15600595Y-13357976D01*
X15572024Y-13357976D01*
X15695833Y-13224643D02*
X15772024Y-13224643D01*
X15724405Y-13157976D02*
X15724405Y-13329405D01*
X15733928Y-13348452D01*
X15752976Y-13357976D01*
X15772024Y-13357976D01*
X15991071Y-13224643D02*
X15991071Y-13424643D01*
X15991071Y-13234167D02*
X16010119Y-13224643D01*
X16048214Y-13224643D01*
X16067262Y-13234167D01*
X16076786Y-13243690D01*
X16086309Y-13262738D01*
X16086309Y-13319881D01*
X16076786Y-13338928D01*
X16067262Y-13348452D01*
X16048214Y-13357976D01*
X16010119Y-13357976D01*
X15991071Y-13348452D01*
X16200595Y-13357976D02*
X16181548Y-13348452D01*
X16172024Y-13329405D01*
X16172024Y-13157976D01*
X16362500Y-13357976D02*
X16362500Y-13253214D01*
X16352976Y-13234167D01*
X16333928Y-13224643D01*
X16295833Y-13224643D01*
X16276786Y-13234167D01*
X16362500Y-13348452D02*
X16343452Y-13357976D01*
X16295833Y-13357976D01*
X16276786Y-13348452D01*
X16267262Y-13329405D01*
X16267262Y-13310357D01*
X16276786Y-13291309D01*
X16295833Y-13281786D01*
X16343452Y-13281786D01*
X16362500Y-13272262D01*
X16429167Y-13224643D02*
X16505357Y-13224643D01*
X16457738Y-13157976D02*
X16457738Y-13329405D01*
X16467262Y-13348452D01*
X16486309Y-13357976D01*
X16505357Y-13357976D01*
X16648214Y-13348452D02*
X16629167Y-13357976D01*
X16591071Y-13357976D01*
X16572024Y-13348452D01*
X16562500Y-13329405D01*
X16562500Y-13253214D01*
X16572024Y-13234167D01*
X16591071Y-13224643D01*
X16629167Y-13224643D01*
X16648214Y-13234167D01*
X16657738Y-13253214D01*
X16657738Y-13272262D01*
X16562500Y-13291309D01*
X16829167Y-13357976D02*
X16829167Y-13157976D01*
X16829167Y-13348452D02*
X16810119Y-13357976D01*
X16772024Y-13357976D01*
X16752976Y-13348452D01*
X16743452Y-13338928D01*
X16733928Y-13319881D01*
X16733928Y-13262738D01*
X16743452Y-13243690D01*
X16752976Y-13234167D01*
X16772024Y-13224643D01*
X16810119Y-13224643D01*
X16829167Y-13234167D01*
X16905357Y-13434167D02*
X16914881Y-13424643D01*
X16933929Y-13396071D01*
X16943452Y-13377024D01*
X16952976Y-13348452D01*
X16962500Y-13300833D01*
X16962500Y-13262738D01*
X16952976Y-13215119D01*
X16943452Y-13186548D01*
X16933929Y-13167500D01*
X16914881Y-13138928D01*
X16905357Y-13129405D01*
X10152500Y-13537500D02*
G75*
G03*
X10152500Y-13537500I-100000J0D01*
G01*
X10391071Y-13427976D02*
X10514881Y-13427976D01*
X10448214Y-13504167D01*
X10476786Y-13504167D01*
X10495833Y-13513690D01*
X10505357Y-13523214D01*
X10514881Y-13542262D01*
X10514881Y-13589881D01*
X10505357Y-13608928D01*
X10495833Y-13618452D01*
X10476786Y-13627976D01*
X10419643Y-13627976D01*
X10400595Y-13618452D01*
X10391071Y-13608928D01*
X10600595Y-13608928D02*
X10610119Y-13618452D01*
X10600595Y-13627976D01*
X10591071Y-13618452D01*
X10600595Y-13608928D01*
X10600595Y-13627976D01*
X10686310Y-13447024D02*
X10695833Y-13437500D01*
X10714881Y-13427976D01*
X10762500Y-13427976D01*
X10781548Y-13437500D01*
X10791071Y-13447024D01*
X10800595Y-13466071D01*
X10800595Y-13485119D01*
X10791071Y-13513690D01*
X10676786Y-13627976D01*
X10800595Y-13627976D01*
X10924405Y-13427976D02*
X10943452Y-13427976D01*
X10962500Y-13437500D01*
X10972024Y-13447024D01*
X10981548Y-13466071D01*
X10991071Y-13504167D01*
X10991071Y-13551786D01*
X10981548Y-13589881D01*
X10972024Y-13608928D01*
X10962500Y-13618452D01*
X10943452Y-13627976D01*
X10924405Y-13627976D01*
X10905357Y-13618452D01*
X10895833Y-13608928D01*
X10886310Y-13589881D01*
X10876786Y-13551786D01*
X10876786Y-13504167D01*
X10886310Y-13466071D01*
X10895833Y-13447024D01*
X10905357Y-13437500D01*
X10924405Y-13427976D01*
X11114881Y-13427976D02*
X11133929Y-13427976D01*
X11152976Y-13437500D01*
X11162500Y-13447024D01*
X11172024Y-13466071D01*
X11181548Y-13504167D01*
X11181548Y-13551786D01*
X11172024Y-13589881D01*
X11162500Y-13608928D01*
X11152976Y-13618452D01*
X11133929Y-13627976D01*
X11114881Y-13627976D01*
X11095833Y-13618452D01*
X11086310Y-13608928D01*
X11076786Y-13589881D01*
X11067262Y-13551786D01*
X11067262Y-13504167D01*
X11076786Y-13466071D01*
X11086310Y-13447024D01*
X11095833Y-13437500D01*
X11114881Y-13427976D01*
X11267262Y-13627976D02*
X11267262Y-13494643D01*
X11267262Y-13513690D02*
X11276786Y-13504167D01*
X11295833Y-13494643D01*
X11324405Y-13494643D01*
X11343452Y-13504167D01*
X11352976Y-13523214D01*
X11352976Y-13627976D01*
X11352976Y-13523214D02*
X11362500Y-13504167D01*
X11381548Y-13494643D01*
X11410119Y-13494643D01*
X11429167Y-13504167D01*
X11438690Y-13523214D01*
X11438690Y-13627976D01*
X11533928Y-13627976D02*
X11533928Y-13494643D01*
X11533928Y-13513690D02*
X11543452Y-13504167D01*
X11562500Y-13494643D01*
X11591071Y-13494643D01*
X11610119Y-13504167D01*
X11619643Y-13523214D01*
X11619643Y-13627976D01*
X11619643Y-13523214D02*
X11629167Y-13504167D01*
X11648214Y-13494643D01*
X11676786Y-13494643D01*
X11695833Y-13504167D01*
X11705357Y-13523214D01*
X11705357Y-13627976D01*
X12095833Y-13418452D02*
X11924405Y-13675595D01*
X12352976Y-13427976D02*
X12372024Y-13427976D01*
X12391071Y-13437500D01*
X12400595Y-13447024D01*
X12410119Y-13466071D01*
X12419643Y-13504167D01*
X12419643Y-13551786D01*
X12410119Y-13589881D01*
X12400595Y-13608928D01*
X12391071Y-13618452D01*
X12372024Y-13627976D01*
X12352976Y-13627976D01*
X12333928Y-13618452D01*
X12324405Y-13608928D01*
X12314881Y-13589881D01*
X12305357Y-13551786D01*
X12305357Y-13504167D01*
X12314881Y-13466071D01*
X12324405Y-13447024D01*
X12333928Y-13437500D01*
X12352976Y-13427976D01*
X12505357Y-13608928D02*
X12514881Y-13618452D01*
X12505357Y-13627976D01*
X12495833Y-13618452D01*
X12505357Y-13608928D01*
X12505357Y-13627976D01*
X12705357Y-13627976D02*
X12591071Y-13627976D01*
X12648214Y-13627976D02*
X12648214Y-13427976D01*
X12629167Y-13456548D01*
X12610119Y-13475595D01*
X12591071Y-13485119D01*
X12781548Y-13447024D02*
X12791071Y-13437500D01*
X12810119Y-13427976D01*
X12857738Y-13427976D01*
X12876786Y-13437500D01*
X12886309Y-13447024D01*
X12895833Y-13466071D01*
X12895833Y-13485119D01*
X12886309Y-13513690D01*
X12772024Y-13627976D01*
X12895833Y-13627976D01*
X13067262Y-13427976D02*
X13029167Y-13427976D01*
X13010119Y-13437500D01*
X13000595Y-13447024D01*
X12981548Y-13475595D01*
X12972024Y-13513690D01*
X12972024Y-13589881D01*
X12981548Y-13608928D01*
X12991071Y-13618452D01*
X13010119Y-13627976D01*
X13048214Y-13627976D01*
X13067262Y-13618452D01*
X13076786Y-13608928D01*
X13086309Y-13589881D01*
X13086309Y-13542262D01*
X13076786Y-13523214D01*
X13067262Y-13513690D01*
X13048214Y-13504167D01*
X13010119Y-13504167D01*
X12991071Y-13513690D01*
X12981548Y-13523214D01*
X12972024Y-13542262D01*
X13210119Y-13427976D02*
X13229167Y-13427976D01*
X13248214Y-13437500D01*
X13257738Y-13447024D01*
X13267262Y-13466071D01*
X13276786Y-13504167D01*
X13276786Y-13551786D01*
X13267262Y-13589881D01*
X13257738Y-13608928D01*
X13248214Y-13618452D01*
X13229167Y-13627976D01*
X13210119Y-13627976D01*
X13191071Y-13618452D01*
X13181548Y-13608928D01*
X13172024Y-13589881D01*
X13162500Y-13551786D01*
X13162500Y-13504167D01*
X13172024Y-13466071D01*
X13181548Y-13447024D01*
X13191071Y-13437500D01*
X13210119Y-13427976D01*
X13352976Y-13427976D02*
X13352976Y-13466071D01*
X13429167Y-13427976D02*
X13429167Y-13466071D01*
X13724405Y-13704167D02*
X13714881Y-13694643D01*
X13695833Y-13666071D01*
X13686309Y-13647024D01*
X13676786Y-13618452D01*
X13667262Y-13570833D01*
X13667262Y-13532738D01*
X13676786Y-13485119D01*
X13686309Y-13456548D01*
X13695833Y-13437500D01*
X13714881Y-13408928D01*
X13724405Y-13399405D01*
X13791071Y-13447024D02*
X13800595Y-13437500D01*
X13819643Y-13427976D01*
X13867262Y-13427976D01*
X13886309Y-13437500D01*
X13895833Y-13447024D01*
X13905357Y-13466071D01*
X13905357Y-13485119D01*
X13895833Y-13513690D01*
X13781548Y-13627976D01*
X13905357Y-13627976D01*
X14143452Y-13627976D02*
X14143452Y-13427976D01*
X14229167Y-13627976D02*
X14229167Y-13523214D01*
X14219643Y-13504167D01*
X14200595Y-13494643D01*
X14172024Y-13494643D01*
X14152976Y-13504167D01*
X14143452Y-13513690D01*
X14352976Y-13627976D02*
X14333928Y-13618452D01*
X14324405Y-13608928D01*
X14314881Y-13589881D01*
X14314881Y-13532738D01*
X14324405Y-13513690D01*
X14333928Y-13504167D01*
X14352976Y-13494643D01*
X14381548Y-13494643D01*
X14400595Y-13504167D01*
X14410119Y-13513690D01*
X14419643Y-13532738D01*
X14419643Y-13589881D01*
X14410119Y-13608928D01*
X14400595Y-13618452D01*
X14381548Y-13627976D01*
X14352976Y-13627976D01*
X14533928Y-13627976D02*
X14514881Y-13618452D01*
X14505357Y-13599405D01*
X14505357Y-13427976D01*
X14686309Y-13618452D02*
X14667262Y-13627976D01*
X14629167Y-13627976D01*
X14610119Y-13618452D01*
X14600595Y-13599405D01*
X14600595Y-13523214D01*
X14610119Y-13504167D01*
X14629167Y-13494643D01*
X14667262Y-13494643D01*
X14686309Y-13504167D01*
X14695833Y-13523214D01*
X14695833Y-13542262D01*
X14600595Y-13561309D01*
X14772024Y-13618452D02*
X14791071Y-13627976D01*
X14829167Y-13627976D01*
X14848214Y-13618452D01*
X14857738Y-13599405D01*
X14857738Y-13589881D01*
X14848214Y-13570833D01*
X14829167Y-13561309D01*
X14800595Y-13561309D01*
X14781548Y-13551786D01*
X14772024Y-13532738D01*
X14772024Y-13523214D01*
X14781548Y-13504167D01*
X14800595Y-13494643D01*
X14829167Y-13494643D01*
X14848214Y-13504167D01*
X14924405Y-13704167D02*
X14933928Y-13694643D01*
X14952976Y-13666071D01*
X14962500Y-13647024D01*
X14972024Y-13618452D01*
X14981548Y-13570833D01*
X14981548Y-13532738D01*
X14972024Y-13485119D01*
X14962500Y-13456548D01*
X14952976Y-13437500D01*
X14933928Y-13408928D01*
X14924405Y-13399405D01*
X15286309Y-13704167D02*
X15276786Y-13694643D01*
X15257738Y-13666071D01*
X15248214Y-13647024D01*
X15238690Y-13618452D01*
X15229167Y-13570833D01*
X15229167Y-13532738D01*
X15238690Y-13485119D01*
X15248214Y-13456548D01*
X15257738Y-13437500D01*
X15276786Y-13408928D01*
X15286309Y-13399405D01*
X15362500Y-13494643D02*
X15362500Y-13627976D01*
X15362500Y-13513690D02*
X15372024Y-13504167D01*
X15391071Y-13494643D01*
X15419643Y-13494643D01*
X15438690Y-13504167D01*
X15448214Y-13523214D01*
X15448214Y-13627976D01*
X15572024Y-13627976D02*
X15552976Y-13618452D01*
X15543452Y-13608928D01*
X15533928Y-13589881D01*
X15533928Y-13532738D01*
X15543452Y-13513690D01*
X15552976Y-13504167D01*
X15572024Y-13494643D01*
X15600595Y-13494643D01*
X15619643Y-13504167D01*
X15629167Y-13513690D01*
X15638690Y-13532738D01*
X15638690Y-13589881D01*
X15629167Y-13608928D01*
X15619643Y-13618452D01*
X15600595Y-13627976D01*
X15572024Y-13627976D01*
X15695833Y-13494643D02*
X15772024Y-13494643D01*
X15724405Y-13427976D02*
X15724405Y-13599405D01*
X15733928Y-13618452D01*
X15752976Y-13627976D01*
X15772024Y-13627976D01*
X15991071Y-13494643D02*
X15991071Y-13694643D01*
X15991071Y-13504167D02*
X16010119Y-13494643D01*
X16048214Y-13494643D01*
X16067262Y-13504167D01*
X16076786Y-13513690D01*
X16086309Y-13532738D01*
X16086309Y-13589881D01*
X16076786Y-13608928D01*
X16067262Y-13618452D01*
X16048214Y-13627976D01*
X16010119Y-13627976D01*
X15991071Y-13618452D01*
X16200595Y-13627976D02*
X16181548Y-13618452D01*
X16172024Y-13599405D01*
X16172024Y-13427976D01*
X16362500Y-13627976D02*
X16362500Y-13523214D01*
X16352976Y-13504167D01*
X16333928Y-13494643D01*
X16295833Y-13494643D01*
X16276786Y-13504167D01*
X16362500Y-13618452D02*
X16343452Y-13627976D01*
X16295833Y-13627976D01*
X16276786Y-13618452D01*
X16267262Y-13599405D01*
X16267262Y-13580357D01*
X16276786Y-13561309D01*
X16295833Y-13551786D01*
X16343452Y-13551786D01*
X16362500Y-13542262D01*
X16429167Y-13494643D02*
X16505357Y-13494643D01*
X16457738Y-13427976D02*
X16457738Y-13599405D01*
X16467262Y-13618452D01*
X16486309Y-13627976D01*
X16505357Y-13627976D01*
X16648214Y-13618452D02*
X16629167Y-13627976D01*
X16591071Y-13627976D01*
X16572024Y-13618452D01*
X16562500Y-13599405D01*
X16562500Y-13523214D01*
X16572024Y-13504167D01*
X16591071Y-13494643D01*
X16629167Y-13494643D01*
X16648214Y-13504167D01*
X16657738Y-13523214D01*
X16657738Y-13542262D01*
X16562500Y-13561309D01*
X16829167Y-13627976D02*
X16829167Y-13427976D01*
X16829167Y-13618452D02*
X16810119Y-13627976D01*
X16772024Y-13627976D01*
X16752976Y-13618452D01*
X16743452Y-13608928D01*
X16733928Y-13589881D01*
X16733928Y-13532738D01*
X16743452Y-13513690D01*
X16752976Y-13504167D01*
X16772024Y-13494643D01*
X16810119Y-13494643D01*
X16829167Y-13504167D01*
X16905357Y-13704167D02*
X16914881Y-13694643D01*
X16933929Y-13666071D01*
X16943452Y-13647024D01*
X16952976Y-13618452D01*
X16962500Y-13570833D01*
X16962500Y-13532738D01*
X16952976Y-13485119D01*
X16943452Y-13456548D01*
X16933929Y-13437500D01*
X16914881Y-13408928D01*
X16905357Y-13399405D01*
M02*
