M48
; FORMAT={-:-/ absolute / metric / decimal}
; #@! TF.GenerationSoftware,Kicad,Pcbnew,6.0.7+dfsg-1~bpo11+1
; #@! TF.FileFunction,Plated,1,2,PTH
FMAT,2
METRIC
; #@! TA.AperFunction,Plated,PTH,ViaDrill
T1C0.400
; #@! TA.AperFunction,Plated,PTH,ComponentDrill
T2C0.500
; #@! TA.AperFunction,Plated,PTH,ComponentDrill
T3C0.800
; #@! TA.AperFunction,Plated,PTH,ComponentDrill
T4C0.950
; #@! TA.AperFunction,Plated,PTH,ComponentDrill
T5C1.000
; #@! TA.AperFunction,Plated,PTH,ComponentDrill
T6C1.200
; #@! TA.AperFunction,Plated,PTH,ComponentDrill
T7C1.380
; #@! TA.AperFunction,Plated,PTH,ComponentDrill
T8C3.500
%
G90
G05
T1
X144.78Y-93.18
X149.86Y-93.18
X160.02Y-108.42
X162.56Y-105.88
X179.07Y-112.23
X185.42Y-114.77
X187.96Y-112.23
X193.04Y-114.77
T2
X103.975Y-91.2
X103.975Y-121.2
X104.744Y-89.344
X104.744Y-93.056
X104.744Y-119.344
X104.744Y-123.056
X106.6Y-88.575
X106.6Y-93.825
X106.6Y-118.575
X106.6Y-123.825
X108.456Y-89.344
X108.456Y-93.056
X108.456Y-119.344
X108.456Y-123.056
X109.225Y-91.2
X109.225Y-121.2
X193.975Y-91.2
X193.975Y-121.2
X194.744Y-89.344
X194.744Y-93.056
X194.744Y-119.344
X194.744Y-123.056
X196.6Y-88.575
X196.6Y-93.825
X196.6Y-118.575
X196.6Y-123.825
X198.456Y-89.344
X198.456Y-93.056
X198.456Y-119.344
X198.456Y-123.056
X199.225Y-91.2
X199.225Y-121.2
T3
X198.584Y-79.157
X198.584Y-81.657
X198.584Y-84.157
T4
X109.6Y-103.45
X109.6Y-105.95
X109.6Y-108.45
X109.6Y-110.95
X143.1Y-118.35
X145.6Y-118.35
X148.1Y-118.35
T5
X119.265Y-99.85
X119.265Y-102.39
X119.265Y-104.93
X119.265Y-107.47
X119.265Y-110.01
X119.265Y-112.55
X124.1Y-97.2
X124.1Y-115.2
X128.25Y-102.28
X128.25Y-104.82
X128.25Y-107.36
X134.6Y-97.2
X134.6Y-115.2
X139.585Y-102.39
X139.585Y-104.93
X139.585Y-107.47
X139.585Y-110.01
X144.665Y-102.39
X144.665Y-104.93
X144.665Y-107.47
X144.665Y-110.01
X154.0Y-115.6
X154.0Y-119.1
X154.0Y-122.5
X159.2Y-115.6
X159.2Y-119.1
X159.2Y-122.5
X172.52Y-96.2
X172.52Y-119.06
X175.06Y-96.2
X175.06Y-119.06
X176.55Y-100.45
X176.55Y-103.85
X176.55Y-111.05
X176.55Y-114.45
X177.6Y-96.2
X177.6Y-119.06
X180.14Y-96.2
X180.14Y-119.06
X181.55Y-100.45
X181.55Y-114.45
X182.68Y-96.2
X182.68Y-119.06
X185.22Y-96.2
X185.22Y-119.06
X187.76Y-96.2
X187.76Y-119.06
X190.3Y-96.2
X190.3Y-119.06
X199.55Y-100.45
X199.55Y-114.45
T6
X131.794Y-81.2
X131.794Y-86.2
X162.909Y-81.155
X162.909Y-86.155
T8
X106.6Y-91.2
X106.6Y-121.2
X196.6Y-91.2
X196.6Y-121.2
T7
G00X115.15Y-80.69
M15
G01X115.15Y-81.71
M16
G05
G00X188.05Y-80.69
M15
G01X188.05Y-81.71
M16
G05
T0
M30
