G04 #@! TF.GenerationSoftware,KiCad,Pcbnew,6.0.7+dfsg-1~bpo11+1*
G04 #@! TF.ProjectId,wiscale-mod,77697363-616c-4652-9d6d-6f642e6b6963,rev?*
G04 #@! TF.SameCoordinates,Original*
G04 #@! TF.FileFunction,Soldermask,Top*
G04 #@! TF.FilePolarity,Negative*
%FSLAX46Y46*%
G04 Gerber Fmt 4.6, Leading zero omitted, Abs format (unit mm)*
%MOMM*%
%LPD*%
G01*
G04 APERTURE LIST*
%ADD10R,2.000000X2.000000*%
%ADD11C,2.000000*%
%ADD12O,1.700000X1.950000*%
%ADD13R,2.400000X2.400000*%
%ADD14C,2.400000*%
%ADD15R,1.600000X1.600000*%
%ADD16C,1.600000*%
%ADD17C,7.000000*%
%ADD18C,0.800000*%
%ADD19C,1.500000*%
%ADD20O,1.950000X1.700000*%
%ADD21C,3.200000*%
%ADD22R,7.000000X7.000000*%
%ADD23O,3.440000X6.880000*%
%ADD24O,1.600000X2.000000*%
G04 APERTURE END LIST*
D10*
X119265000Y-99850000D03*
D11*
X119265000Y-102390000D03*
X119265000Y-104930000D03*
X119265000Y-107470000D03*
X119265000Y-110010000D03*
X119265000Y-112550000D03*
D10*
X144665000Y-102390000D03*
X139585000Y-102390000D03*
D11*
X144665000Y-104930000D03*
X139585000Y-104930000D03*
X144665000Y-107470000D03*
X139585000Y-107470000D03*
X139585000Y-110010000D03*
X144665000Y-110010000D03*
G36*
G01*
X142250000Y-119075000D02*
X142250000Y-117625000D01*
G75*
G02*
X142500000Y-117375000I250000J0D01*
G01*
X143700000Y-117375000D01*
G75*
G02*
X143950000Y-117625000I0J-250000D01*
G01*
X143950000Y-119075000D01*
G75*
G02*
X143700000Y-119325000I-250000J0D01*
G01*
X142500000Y-119325000D01*
G75*
G02*
X142250000Y-119075000I0J250000D01*
G01*
G37*
D12*
X145600000Y-118350000D03*
X148100000Y-118350000D03*
D13*
X162909300Y-86155000D03*
D14*
X162909300Y-81155000D03*
D15*
X198584000Y-84157500D03*
D16*
X198584000Y-81657500D03*
X198584000Y-79157500D03*
D10*
X134600000Y-97200000D03*
X128250000Y-102280000D03*
X128250000Y-104820000D03*
X124100000Y-97200000D03*
X128250000Y-107360000D03*
X134600000Y-115200000D03*
X124100000Y-115200000D03*
D17*
X196600000Y-91200000D03*
D18*
X199225000Y-91200000D03*
X198456155Y-93056155D03*
X196600000Y-88575000D03*
X196600000Y-93825000D03*
X194743845Y-89343845D03*
X198456155Y-89343845D03*
X193975000Y-91200000D03*
X194743845Y-93056155D03*
D19*
X156600000Y-115600000D03*
X156600000Y-121600000D03*
D11*
X154000000Y-119100000D03*
X159200000Y-119100000D03*
X159200000Y-122500000D03*
X154000000Y-122500000D03*
X154000000Y-115600000D03*
X159200000Y-115600000D03*
D13*
X131794300Y-86200000D03*
D14*
X131794300Y-81200000D03*
D18*
X199225000Y-121200000D03*
D17*
X196600000Y-121200000D03*
D18*
X196600000Y-123825000D03*
X194743845Y-119343845D03*
X193975000Y-121200000D03*
X198456155Y-123056155D03*
X198456155Y-119343845D03*
X196600000Y-118575000D03*
X194743845Y-123056155D03*
G36*
G01*
X108875000Y-102600000D02*
X110325000Y-102600000D01*
G75*
G02*
X110575000Y-102850000I0J-250000D01*
G01*
X110575000Y-104050000D01*
G75*
G02*
X110325000Y-104300000I-250000J0D01*
G01*
X108875000Y-104300000D01*
G75*
G02*
X108625000Y-104050000I0J250000D01*
G01*
X108625000Y-102850000D01*
G75*
G02*
X108875000Y-102600000I250000J0D01*
G01*
G37*
D20*
X109600000Y-105950000D03*
X109600000Y-108450000D03*
X109600000Y-110950000D03*
D10*
X181550000Y-114450000D03*
X176550000Y-111050000D03*
X176550000Y-103850000D03*
X181550000Y-100450000D03*
X199550000Y-114450000D03*
X199550000Y-100450000D03*
X176550000Y-114450000D03*
X176550000Y-100450000D03*
D18*
X104743845Y-119343845D03*
X103975000Y-121200000D03*
D17*
X106600000Y-121200000D03*
D18*
X108456155Y-123056155D03*
X109225000Y-121200000D03*
X106600000Y-123825000D03*
X108456155Y-119343845D03*
X104743845Y-123056155D03*
X106600000Y-118575000D03*
D21*
X179040000Y-81200000D03*
X123430000Y-81200000D03*
D22*
X191600000Y-81200000D03*
D23*
X188050000Y-81200000D03*
X115150000Y-81200000D03*
D22*
X111600000Y-81200000D03*
D17*
X106600000Y-91200000D03*
D18*
X103975000Y-91200000D03*
X106600000Y-88575000D03*
X108456155Y-93056155D03*
X109225000Y-91200000D03*
X104743845Y-89343845D03*
X106600000Y-93825000D03*
X108456155Y-89343845D03*
X104743845Y-93056155D03*
D10*
X172520000Y-119060000D03*
D24*
X175060000Y-119060000D03*
X177600000Y-119060000D03*
X180140000Y-119060000D03*
X182680000Y-119060000D03*
X185220000Y-119060000D03*
X187760000Y-119060000D03*
X190300000Y-119060000D03*
X190300000Y-96200000D03*
X187760000Y-96200000D03*
X185220000Y-96200000D03*
X182680000Y-96200000D03*
X180140000Y-96200000D03*
X177600000Y-96200000D03*
X175060000Y-96200000D03*
X172520000Y-96200000D03*
M02*
