G04 #@! TF.GenerationSoftware,KiCad,Pcbnew,6.0.7+dfsg-1~bpo11+1*
G04 #@! TF.ProjectId,wiscale-mod,77697363-616c-4652-9d6d-6f642e6b6963,rev?*
G04 #@! TF.SameCoordinates,Original*
G04 #@! TF.FileFunction,Legend,Bot*
G04 #@! TF.FilePolarity,Positive*
%FSLAX46Y46*%
G04 Gerber Fmt 4.6, Leading zero omitted, Abs format (unit mm)*
%MOMM*%
%LPD*%
G01*
G04 APERTURE LIST*
%ADD10C,0.150000*%
%ADD11C,0.120000*%
%ADD12R,2.000000X2.000000*%
%ADD13C,2.000000*%
%ADD14O,1.700000X1.950000*%
%ADD15R,2.400000X2.400000*%
%ADD16C,2.400000*%
%ADD17R,1.600000X1.600000*%
%ADD18C,1.600000*%
%ADD19C,7.000000*%
%ADD20C,0.800000*%
%ADD21C,1.500000*%
%ADD22O,1.950000X1.700000*%
%ADD23C,3.200000*%
%ADD24O,3.440000X6.880000*%
%ADD25O,1.600000X2.000000*%
G04 APERTURE END LIST*
D10*
X114916666Y-103189142D02*
X114964285Y-103236761D01*
X115107142Y-103284380D01*
X115202380Y-103284380D01*
X115345238Y-103236761D01*
X115440476Y-103141523D01*
X115488095Y-103046285D01*
X115535714Y-102855809D01*
X115535714Y-102712952D01*
X115488095Y-102522476D01*
X115440476Y-102427238D01*
X115345238Y-102332000D01*
X115202380Y-102284380D01*
X115107142Y-102284380D01*
X114964285Y-102332000D01*
X114916666Y-102379619D01*
X114535714Y-102379619D02*
X114488095Y-102332000D01*
X114392857Y-102284380D01*
X114154761Y-102284380D01*
X114059523Y-102332000D01*
X114011904Y-102379619D01*
X113964285Y-102474857D01*
X113964285Y-102570095D01*
X114011904Y-102712952D01*
X114583333Y-103284380D01*
X113964285Y-103284380D01*
X195587857Y-81947380D02*
X195921190Y-81471190D01*
X196159285Y-81947380D02*
X196159285Y-80947380D01*
X195778333Y-80947380D01*
X195683095Y-80995000D01*
X195635476Y-81042619D01*
X195587857Y-81137857D01*
X195587857Y-81280714D01*
X195635476Y-81375952D01*
X195683095Y-81423571D01*
X195778333Y-81471190D01*
X196159285Y-81471190D01*
X194635476Y-81947380D02*
X195206904Y-81947380D01*
X194921190Y-81947380D02*
X194921190Y-80947380D01*
X195016428Y-81090238D01*
X195111666Y-81185476D01*
X195206904Y-81233095D01*
X194254523Y-81042619D02*
X194206904Y-80995000D01*
X194111666Y-80947380D01*
X193873571Y-80947380D01*
X193778333Y-80995000D01*
X193730714Y-81042619D01*
X193683095Y-81137857D01*
X193683095Y-81233095D01*
X193730714Y-81375952D01*
X194302142Y-81947380D01*
X193683095Y-81947380D01*
X195746666Y-102427142D02*
X195794285Y-102474761D01*
X195937142Y-102522380D01*
X196032380Y-102522380D01*
X196175238Y-102474761D01*
X196270476Y-102379523D01*
X196318095Y-102284285D01*
X196365714Y-102093809D01*
X196365714Y-101950952D01*
X196318095Y-101760476D01*
X196270476Y-101665238D01*
X196175238Y-101570000D01*
X196032380Y-101522380D01*
X195937142Y-101522380D01*
X195794285Y-101570000D01*
X195746666Y-101617619D01*
X195175238Y-101950952D02*
X195270476Y-101903333D01*
X195318095Y-101855714D01*
X195365714Y-101760476D01*
X195365714Y-101712857D01*
X195318095Y-101617619D01*
X195270476Y-101570000D01*
X195175238Y-101522380D01*
X194984761Y-101522380D01*
X194889523Y-101570000D01*
X194841904Y-101617619D01*
X194794285Y-101712857D01*
X194794285Y-101760476D01*
X194841904Y-101855714D01*
X194889523Y-101903333D01*
X194984761Y-101950952D01*
X195175238Y-101950952D01*
X195270476Y-101998571D01*
X195318095Y-102046190D01*
X195365714Y-102141428D01*
X195365714Y-102331904D01*
X195318095Y-102427142D01*
X195270476Y-102474761D01*
X195175238Y-102522380D01*
X194984761Y-102522380D01*
X194889523Y-102474761D01*
X194841904Y-102427142D01*
X194794285Y-102331904D01*
X194794285Y-102141428D01*
X194841904Y-102046190D01*
X194889523Y-101998571D01*
X194984761Y-101950952D01*
X179236666Y-117127380D02*
X179570000Y-116651190D01*
X179808095Y-117127380D02*
X179808095Y-116127380D01*
X179427142Y-116127380D01*
X179331904Y-116175000D01*
X179284285Y-116222619D01*
X179236666Y-116317857D01*
X179236666Y-116460714D01*
X179284285Y-116555952D01*
X179331904Y-116603571D01*
X179427142Y-116651190D01*
X179808095Y-116651190D01*
X178284285Y-117127380D02*
X178855714Y-117127380D01*
X178570000Y-117127380D02*
X178570000Y-116127380D01*
X178665238Y-116270238D01*
X178760476Y-116365476D01*
X178855714Y-116413095D01*
X185586666Y-124112380D02*
X185920000Y-123636190D01*
X186158095Y-124112380D02*
X186158095Y-123112380D01*
X185777142Y-123112380D01*
X185681904Y-123160000D01*
X185634285Y-123207619D01*
X185586666Y-123302857D01*
X185586666Y-123445714D01*
X185634285Y-123540952D01*
X185681904Y-123588571D01*
X185777142Y-123636190D01*
X186158095Y-123636190D01*
X185110476Y-124112380D02*
X184920000Y-124112380D01*
X184824761Y-124064761D01*
X184777142Y-124017142D01*
X184681904Y-123874285D01*
X184634285Y-123683809D01*
X184634285Y-123302857D01*
X184681904Y-123207619D01*
X184729523Y-123160000D01*
X184824761Y-123112380D01*
X185015238Y-123112380D01*
X185110476Y-123160000D01*
X185158095Y-123207619D01*
X185205714Y-123302857D01*
X185205714Y-123540952D01*
X185158095Y-123636190D01*
X185110476Y-123683809D01*
X185015238Y-123731428D01*
X184824761Y-123731428D01*
X184729523Y-123683809D01*
X184681904Y-123636190D01*
X184634285Y-123540952D01*
X173521666Y-116492380D02*
X173855000Y-116016190D01*
X174093095Y-116492380D02*
X174093095Y-115492380D01*
X173712142Y-115492380D01*
X173616904Y-115540000D01*
X173569285Y-115587619D01*
X173521666Y-115682857D01*
X173521666Y-115825714D01*
X173569285Y-115920952D01*
X173616904Y-115968571D01*
X173712142Y-116016190D01*
X174093095Y-116016190D01*
X173140714Y-115587619D02*
X173093095Y-115540000D01*
X172997857Y-115492380D01*
X172759761Y-115492380D01*
X172664523Y-115540000D01*
X172616904Y-115587619D01*
X172569285Y-115682857D01*
X172569285Y-115778095D01*
X172616904Y-115920952D01*
X173188333Y-116492380D01*
X172569285Y-116492380D01*
X179266666Y-102302380D02*
X179600000Y-101826190D01*
X179838095Y-102302380D02*
X179838095Y-101302380D01*
X179457142Y-101302380D01*
X179361904Y-101350000D01*
X179314285Y-101397619D01*
X179266666Y-101492857D01*
X179266666Y-101635714D01*
X179314285Y-101730952D01*
X179361904Y-101778571D01*
X179457142Y-101826190D01*
X179838095Y-101826190D01*
X178933333Y-101302380D02*
X178314285Y-101302380D01*
X178647619Y-101683333D01*
X178504761Y-101683333D01*
X178409523Y-101730952D01*
X178361904Y-101778571D01*
X178314285Y-101873809D01*
X178314285Y-102111904D01*
X178361904Y-102207142D01*
X178409523Y-102254761D01*
X178504761Y-102302380D01*
X178790476Y-102302380D01*
X178885714Y-102254761D01*
X178933333Y-102207142D01*
X196341904Y-107618380D02*
X196341904Y-108427904D01*
X196294285Y-108523142D01*
X196246666Y-108570761D01*
X196151428Y-108618380D01*
X195960952Y-108618380D01*
X195865714Y-108570761D01*
X195818095Y-108523142D01*
X195770476Y-108427904D01*
X195770476Y-107618380D01*
X194865714Y-107951714D02*
X194865714Y-108618380D01*
X195103809Y-107570761D02*
X195341904Y-108285047D01*
X194722857Y-108285047D01*
X134627857Y-103412380D02*
X134961190Y-102936190D01*
X135199285Y-103412380D02*
X135199285Y-102412380D01*
X134818333Y-102412380D01*
X134723095Y-102460000D01*
X134675476Y-102507619D01*
X134627857Y-102602857D01*
X134627857Y-102745714D01*
X134675476Y-102840952D01*
X134723095Y-102888571D01*
X134818333Y-102936190D01*
X135199285Y-102936190D01*
X133675476Y-103412380D02*
X134246904Y-103412380D01*
X133961190Y-103412380D02*
X133961190Y-102412380D01*
X134056428Y-102555238D01*
X134151666Y-102650476D01*
X134246904Y-102698095D01*
X132818333Y-102412380D02*
X133008809Y-102412380D01*
X133104047Y-102460000D01*
X133151666Y-102507619D01*
X133246904Y-102650476D01*
X133294523Y-102840952D01*
X133294523Y-103221904D01*
X133246904Y-103317142D01*
X133199285Y-103364761D01*
X133104047Y-103412380D01*
X132913571Y-103412380D01*
X132818333Y-103364761D01*
X132770714Y-103317142D01*
X132723095Y-103221904D01*
X132723095Y-102983809D01*
X132770714Y-102888571D01*
X132818333Y-102840952D01*
X132913571Y-102793333D01*
X133104047Y-102793333D01*
X133199285Y-102840952D01*
X133246904Y-102888571D01*
X133294523Y-102983809D01*
X179236666Y-108022394D02*
X179284285Y-108070013D01*
X179427142Y-108117632D01*
X179522380Y-108117632D01*
X179665238Y-108070013D01*
X179760476Y-107974775D01*
X179808095Y-107879537D01*
X179855714Y-107689061D01*
X179855714Y-107546204D01*
X179808095Y-107355728D01*
X179760476Y-107260490D01*
X179665238Y-107165252D01*
X179522380Y-107117632D01*
X179427142Y-107117632D01*
X179284285Y-107165252D01*
X179236666Y-107212871D01*
X178284285Y-108117632D02*
X178855714Y-108117632D01*
X178570000Y-108117632D02*
X178570000Y-107117632D01*
X178665238Y-107260490D01*
X178760476Y-107355728D01*
X178855714Y-107403347D01*
X134151666Y-106462142D02*
X134199285Y-106509761D01*
X134342142Y-106557380D01*
X134437380Y-106557380D01*
X134580238Y-106509761D01*
X134675476Y-106414523D01*
X134723095Y-106319285D01*
X134770714Y-106128809D01*
X134770714Y-105985952D01*
X134723095Y-105795476D01*
X134675476Y-105700238D01*
X134580238Y-105605000D01*
X134437380Y-105557380D01*
X134342142Y-105557380D01*
X134199285Y-105605000D01*
X134151666Y-105652619D01*
X133818333Y-105557380D02*
X133199285Y-105557380D01*
X133532619Y-105938333D01*
X133389761Y-105938333D01*
X133294523Y-105985952D01*
X133246904Y-106033571D01*
X133199285Y-106128809D01*
X133199285Y-106366904D01*
X133246904Y-106462142D01*
X133294523Y-106509761D01*
X133389761Y-106557380D01*
X133675476Y-106557380D01*
X133770714Y-106509761D01*
X133818333Y-106462142D01*
X182252857Y-124112380D02*
X182586190Y-123636190D01*
X182824285Y-124112380D02*
X182824285Y-123112380D01*
X182443333Y-123112380D01*
X182348095Y-123160000D01*
X182300476Y-123207619D01*
X182252857Y-123302857D01*
X182252857Y-123445714D01*
X182300476Y-123540952D01*
X182348095Y-123588571D01*
X182443333Y-123636190D01*
X182824285Y-123636190D01*
X181300476Y-124112380D02*
X181871904Y-124112380D01*
X181586190Y-124112380D02*
X181586190Y-123112380D01*
X181681428Y-123255238D01*
X181776666Y-123350476D01*
X181871904Y-123398095D01*
X180681428Y-123112380D02*
X180586190Y-123112380D01*
X180490952Y-123160000D01*
X180443333Y-123207619D01*
X180395714Y-123302857D01*
X180348095Y-123493333D01*
X180348095Y-123731428D01*
X180395714Y-123921904D01*
X180443333Y-124017142D01*
X180490952Y-124064761D01*
X180586190Y-124112380D01*
X180681428Y-124112380D01*
X180776666Y-124064761D01*
X180824285Y-124017142D01*
X180871904Y-123921904D01*
X180919523Y-123731428D01*
X180919523Y-123493333D01*
X180871904Y-123302857D01*
X180824285Y-123207619D01*
X180776666Y-123160000D01*
X180681428Y-123112380D01*
X189396666Y-124112380D02*
X189730000Y-123636190D01*
X189968095Y-124112380D02*
X189968095Y-123112380D01*
X189587142Y-123112380D01*
X189491904Y-123160000D01*
X189444285Y-123207619D01*
X189396666Y-123302857D01*
X189396666Y-123445714D01*
X189444285Y-123540952D01*
X189491904Y-123588571D01*
X189587142Y-123636190D01*
X189968095Y-123636190D01*
X188825238Y-123540952D02*
X188920476Y-123493333D01*
X188968095Y-123445714D01*
X189015714Y-123350476D01*
X189015714Y-123302857D01*
X188968095Y-123207619D01*
X188920476Y-123160000D01*
X188825238Y-123112380D01*
X188634761Y-123112380D01*
X188539523Y-123160000D01*
X188491904Y-123207619D01*
X188444285Y-123302857D01*
X188444285Y-123350476D01*
X188491904Y-123445714D01*
X188539523Y-123493333D01*
X188634761Y-123540952D01*
X188825238Y-123540952D01*
X188920476Y-123588571D01*
X188968095Y-123636190D01*
X189015714Y-123731428D01*
X189015714Y-123921904D01*
X188968095Y-124017142D01*
X188920476Y-124064761D01*
X188825238Y-124112380D01*
X188634761Y-124112380D01*
X188539523Y-124064761D01*
X188491904Y-124017142D01*
X188444285Y-123921904D01*
X188444285Y-123731428D01*
X188491904Y-123636190D01*
X188539523Y-123588571D01*
X188634761Y-123540952D01*
X185515238Y-105157619D02*
X185610476Y-105110000D01*
X185705714Y-105014761D01*
X185848571Y-104871904D01*
X185943809Y-104824285D01*
X186039047Y-104824285D01*
X185991428Y-105062380D02*
X186086666Y-105014761D01*
X186181904Y-104919523D01*
X186229523Y-104729047D01*
X186229523Y-104395714D01*
X186181904Y-104205238D01*
X186086666Y-104110000D01*
X185991428Y-104062380D01*
X185800952Y-104062380D01*
X185705714Y-104110000D01*
X185610476Y-104205238D01*
X185562857Y-104395714D01*
X185562857Y-104729047D01*
X185610476Y-104919523D01*
X185705714Y-105014761D01*
X185800952Y-105062380D01*
X185991428Y-105062380D01*
X185181904Y-104157619D02*
X185134285Y-104110000D01*
X185039047Y-104062380D01*
X184800952Y-104062380D01*
X184705714Y-104110000D01*
X184658095Y-104157619D01*
X184610476Y-104252857D01*
X184610476Y-104348095D01*
X184658095Y-104490952D01*
X185229523Y-105062380D01*
X184610476Y-105062380D01*
X172180238Y-109602619D02*
X172275476Y-109555000D01*
X172370714Y-109459761D01*
X172513571Y-109316904D01*
X172608809Y-109269285D01*
X172704047Y-109269285D01*
X172656428Y-109507380D02*
X172751666Y-109459761D01*
X172846904Y-109364523D01*
X172894523Y-109174047D01*
X172894523Y-108840714D01*
X172846904Y-108650238D01*
X172751666Y-108555000D01*
X172656428Y-108507380D01*
X172465952Y-108507380D01*
X172370714Y-108555000D01*
X172275476Y-108650238D01*
X172227857Y-108840714D01*
X172227857Y-109174047D01*
X172275476Y-109364523D01*
X172370714Y-109459761D01*
X172465952Y-109507380D01*
X172656428Y-109507380D01*
X171275476Y-109507380D02*
X171846904Y-109507380D01*
X171561190Y-109507380D02*
X171561190Y-108507380D01*
X171656428Y-108650238D01*
X171751666Y-108745476D01*
X171846904Y-108793095D01*
X173521666Y-100522142D02*
X173569285Y-100569761D01*
X173712142Y-100617380D01*
X173807380Y-100617380D01*
X173950238Y-100569761D01*
X174045476Y-100474523D01*
X174093095Y-100379285D01*
X174140714Y-100188809D01*
X174140714Y-100045952D01*
X174093095Y-99855476D01*
X174045476Y-99760238D01*
X173950238Y-99665000D01*
X173807380Y-99617380D01*
X173712142Y-99617380D01*
X173569285Y-99665000D01*
X173521666Y-99712619D01*
X172664523Y-99617380D02*
X172855000Y-99617380D01*
X172950238Y-99665000D01*
X172997857Y-99712619D01*
X173093095Y-99855476D01*
X173140714Y-100045952D01*
X173140714Y-100426904D01*
X173093095Y-100522142D01*
X173045476Y-100569761D01*
X172950238Y-100617380D01*
X172759761Y-100617380D01*
X172664523Y-100569761D01*
X172616904Y-100522142D01*
X172569285Y-100426904D01*
X172569285Y-100188809D01*
X172616904Y-100093571D01*
X172664523Y-100045952D01*
X172759761Y-99998333D01*
X172950238Y-99998333D01*
X173045476Y-100045952D01*
X173093095Y-100093571D01*
X173140714Y-100188809D01*
X163837857Y-115222380D02*
X164171190Y-114746190D01*
X164409285Y-115222380D02*
X164409285Y-114222380D01*
X164028333Y-114222380D01*
X163933095Y-114270000D01*
X163885476Y-114317619D01*
X163837857Y-114412857D01*
X163837857Y-114555714D01*
X163885476Y-114650952D01*
X163933095Y-114698571D01*
X164028333Y-114746190D01*
X164409285Y-114746190D01*
X162885476Y-115222380D02*
X163456904Y-115222380D01*
X163171190Y-115222380D02*
X163171190Y-114222380D01*
X163266428Y-114365238D01*
X163361666Y-114460476D01*
X163456904Y-114508095D01*
X162552142Y-114222380D02*
X161933095Y-114222380D01*
X162266428Y-114603333D01*
X162123571Y-114603333D01*
X162028333Y-114650952D01*
X161980714Y-114698571D01*
X161933095Y-114793809D01*
X161933095Y-115031904D01*
X161980714Y-115127142D01*
X162028333Y-115174761D01*
X162123571Y-115222380D01*
X162409285Y-115222380D01*
X162504523Y-115174761D01*
X162552142Y-115127142D01*
X114916666Y-112302380D02*
X115250000Y-111826190D01*
X115488095Y-112302380D02*
X115488095Y-111302380D01*
X115107142Y-111302380D01*
X115011904Y-111350000D01*
X114964285Y-111397619D01*
X114916666Y-111492857D01*
X114916666Y-111635714D01*
X114964285Y-111730952D01*
X115011904Y-111778571D01*
X115107142Y-111826190D01*
X115488095Y-111826190D01*
X114583333Y-111302380D02*
X113916666Y-111302380D01*
X114345238Y-112302380D01*
X195746666Y-104967142D02*
X195794285Y-105014761D01*
X195937142Y-105062380D01*
X196032380Y-105062380D01*
X196175238Y-105014761D01*
X196270476Y-104919523D01*
X196318095Y-104824285D01*
X196365714Y-104633809D01*
X196365714Y-104490952D01*
X196318095Y-104300476D01*
X196270476Y-104205238D01*
X196175238Y-104110000D01*
X196032380Y-104062380D01*
X195937142Y-104062380D01*
X195794285Y-104110000D01*
X195746666Y-104157619D01*
X195413333Y-104062380D02*
X194746666Y-104062380D01*
X195175238Y-105062380D01*
X114916666Y-106302380D02*
X115250000Y-105826190D01*
X115488095Y-106302380D02*
X115488095Y-105302380D01*
X115107142Y-105302380D01*
X115011904Y-105350000D01*
X114964285Y-105397619D01*
X114916666Y-105492857D01*
X114916666Y-105635714D01*
X114964285Y-105730952D01*
X115011904Y-105778571D01*
X115107142Y-105826190D01*
X115488095Y-105826190D01*
X114059523Y-105635714D02*
X114059523Y-106302380D01*
X114297619Y-105254761D02*
X114535714Y-105969047D01*
X113916666Y-105969047D01*
X181308333Y-87943571D02*
X181641666Y-87943571D01*
X181641666Y-88467380D02*
X181641666Y-87467380D01*
X181165476Y-87467380D01*
X180260714Y-88467380D02*
X180832142Y-88467380D01*
X180546428Y-88467380D02*
X180546428Y-87467380D01*
X180641666Y-87610238D01*
X180736904Y-87705476D01*
X180832142Y-87753095D01*
X114916666Y-109302380D02*
X115250000Y-108826190D01*
X115488095Y-109302380D02*
X115488095Y-108302380D01*
X115107142Y-108302380D01*
X115011904Y-108350000D01*
X114964285Y-108397619D01*
X114916666Y-108492857D01*
X114916666Y-108635714D01*
X114964285Y-108730952D01*
X115011904Y-108778571D01*
X115107142Y-108826190D01*
X115488095Y-108826190D01*
X114059523Y-108302380D02*
X114250000Y-108302380D01*
X114345238Y-108350000D01*
X114392857Y-108397619D01*
X114488095Y-108540476D01*
X114535714Y-108730952D01*
X114535714Y-109111904D01*
X114488095Y-109207142D01*
X114440476Y-109254761D01*
X114345238Y-109302380D01*
X114154761Y-109302380D01*
X114059523Y-109254761D01*
X114011904Y-109207142D01*
X113964285Y-109111904D01*
X113964285Y-108873809D01*
X114011904Y-108778571D01*
X114059523Y-108730952D01*
X114154761Y-108683333D01*
X114345238Y-108683333D01*
X114440476Y-108730952D01*
X114488095Y-108778571D01*
X114535714Y-108873809D01*
X151772857Y-115222380D02*
X152106190Y-114746190D01*
X152344285Y-115222380D02*
X152344285Y-114222380D01*
X151963333Y-114222380D01*
X151868095Y-114270000D01*
X151820476Y-114317619D01*
X151772857Y-114412857D01*
X151772857Y-114555714D01*
X151820476Y-114650952D01*
X151868095Y-114698571D01*
X151963333Y-114746190D01*
X152344285Y-114746190D01*
X150820476Y-115222380D02*
X151391904Y-115222380D01*
X151106190Y-115222380D02*
X151106190Y-114222380D01*
X151201428Y-114365238D01*
X151296666Y-114460476D01*
X151391904Y-114508095D01*
X149915714Y-114222380D02*
X150391904Y-114222380D01*
X150439523Y-114698571D01*
X150391904Y-114650952D01*
X150296666Y-114603333D01*
X150058571Y-114603333D01*
X149963333Y-114650952D01*
X149915714Y-114698571D01*
X149868095Y-114793809D01*
X149868095Y-115031904D01*
X149915714Y-115127142D01*
X149963333Y-115174761D01*
X150058571Y-115222380D01*
X150296666Y-115222380D01*
X150391904Y-115174761D01*
X150439523Y-115127142D01*
X114916666Y-115302380D02*
X115250000Y-114826190D01*
X115488095Y-115302380D02*
X115488095Y-114302380D01*
X115107142Y-114302380D01*
X115011904Y-114350000D01*
X114964285Y-114397619D01*
X114916666Y-114492857D01*
X114916666Y-114635714D01*
X114964285Y-114730952D01*
X115011904Y-114778571D01*
X115107142Y-114826190D01*
X115488095Y-114826190D01*
X114011904Y-114302380D02*
X114488095Y-114302380D01*
X114535714Y-114778571D01*
X114488095Y-114730952D01*
X114392857Y-114683333D01*
X114154761Y-114683333D01*
X114059523Y-114730952D01*
X114011904Y-114778571D01*
X113964285Y-114873809D01*
X113964285Y-115111904D01*
X114011904Y-115207142D01*
X114059523Y-115254761D01*
X114154761Y-115302380D01*
X114392857Y-115302380D01*
X114488095Y-115254761D01*
X114535714Y-115207142D01*
X186062857Y-109507380D02*
X186396190Y-109031190D01*
X186634285Y-109507380D02*
X186634285Y-108507380D01*
X186253333Y-108507380D01*
X186158095Y-108555000D01*
X186110476Y-108602619D01*
X186062857Y-108697857D01*
X186062857Y-108840714D01*
X186110476Y-108935952D01*
X186158095Y-108983571D01*
X186253333Y-109031190D01*
X186634285Y-109031190D01*
X185110476Y-109507380D02*
X185681904Y-109507380D01*
X185396190Y-109507380D02*
X185396190Y-108507380D01*
X185491428Y-108650238D01*
X185586666Y-108745476D01*
X185681904Y-108793095D01*
X184253333Y-108840714D02*
X184253333Y-109507380D01*
X184491428Y-108459761D02*
X184729523Y-109174047D01*
X184110476Y-109174047D01*
X195587857Y-85757380D02*
X195921190Y-85281190D01*
X196159285Y-85757380D02*
X196159285Y-84757380D01*
X195778333Y-84757380D01*
X195683095Y-84805000D01*
X195635476Y-84852619D01*
X195587857Y-84947857D01*
X195587857Y-85090714D01*
X195635476Y-85185952D01*
X195683095Y-85233571D01*
X195778333Y-85281190D01*
X196159285Y-85281190D01*
X194635476Y-85757380D02*
X195206904Y-85757380D01*
X194921190Y-85757380D02*
X194921190Y-84757380D01*
X195016428Y-84900238D01*
X195111666Y-84995476D01*
X195206904Y-85043095D01*
X193683095Y-85757380D02*
X194254523Y-85757380D01*
X193968809Y-85757380D02*
X193968809Y-84757380D01*
X194064047Y-84900238D01*
X194159285Y-84995476D01*
X194254523Y-85043095D01*
D11*
X114488748Y-100465000D02*
X115011252Y-100465000D01*
X114488748Y-101935000D02*
X115011252Y-101935000D01*
X194717936Y-79110000D02*
X195172064Y-79110000D01*
X194717936Y-80580000D02*
X195172064Y-80580000D01*
X193047252Y-101081000D02*
X192524748Y-101081000D01*
X193047252Y-102551000D02*
X192524748Y-102551000D01*
X179297064Y-114035000D02*
X178842936Y-114035000D01*
X179297064Y-115505000D02*
X178842936Y-115505000D01*
X185192936Y-121020000D02*
X185647064Y-121020000D01*
X185192936Y-122490000D02*
X185647064Y-122490000D01*
X172620000Y-113145936D02*
X172620000Y-113600064D01*
X174090000Y-113145936D02*
X174090000Y-113600064D01*
X178872936Y-99465000D02*
X179327064Y-99465000D01*
X178872936Y-100935000D02*
X179327064Y-100935000D01*
X194282000Y-108166000D02*
X194282000Y-107366000D01*
X194282000Y-108166000D02*
X194282000Y-108966000D01*
X191162000Y-108166000D02*
X191162000Y-106366000D01*
X191162000Y-108166000D02*
X191162000Y-108966000D01*
X134212064Y-103875000D02*
X133757936Y-103875000D01*
X134212064Y-105345000D02*
X133757936Y-105345000D01*
X176557000Y-107142748D02*
X176557000Y-107665252D01*
X178027000Y-107142748D02*
X178027000Y-107665252D01*
X134246252Y-108520000D02*
X133723748Y-108520000D01*
X134246252Y-107050000D02*
X133723748Y-107050000D01*
X181382936Y-121020000D02*
X181837064Y-121020000D01*
X181382936Y-122490000D02*
X181837064Y-122490000D01*
X189002936Y-122490000D02*
X189457064Y-122490000D01*
X189002936Y-121020000D02*
X189457064Y-121020000D01*
X187162000Y-105166000D02*
X187162000Y-103491000D01*
X190282000Y-105166000D02*
X190282000Y-104516000D01*
X190282000Y-105166000D02*
X190282000Y-105816000D01*
X187162000Y-105166000D02*
X187162000Y-105816000D01*
X174244000Y-105971000D02*
X173594000Y-105971000D01*
X174244000Y-109091000D02*
X173594000Y-109091000D01*
X174244000Y-105971000D02*
X175919000Y-105971000D01*
X174244000Y-109091000D02*
X174894000Y-109091000D01*
X174090000Y-102846248D02*
X174090000Y-103368752D01*
X172620000Y-102846248D02*
X172620000Y-103368752D01*
X161825000Y-117537064D02*
X161825000Y-117082936D01*
X163295000Y-117537064D02*
X163295000Y-117082936D01*
X114522936Y-110935000D02*
X114977064Y-110935000D01*
X114522936Y-109465000D02*
X114977064Y-109465000D01*
X192983252Y-104901000D02*
X192460748Y-104901000D01*
X192983252Y-103431000D02*
X192460748Y-103431000D01*
X114522936Y-103465000D02*
X114977064Y-103465000D01*
X114522936Y-104935000D02*
X114977064Y-104935000D01*
X180372936Y-85285000D02*
X181577064Y-85285000D01*
X180372936Y-87105000D02*
X181577064Y-87105000D01*
X114522936Y-107935000D02*
X114977064Y-107935000D01*
X114522936Y-106465000D02*
X114977064Y-106465000D01*
X152500000Y-117537064D02*
X152500000Y-117082936D01*
X151030000Y-117537064D02*
X151030000Y-117082936D01*
X114522936Y-112465000D02*
X114977064Y-112465000D01*
X114522936Y-113935000D02*
X114977064Y-113935000D01*
X188949064Y-108431000D02*
X188494936Y-108431000D01*
X188949064Y-109901000D02*
X188494936Y-109901000D01*
X194717936Y-84390000D02*
X195172064Y-84390000D01*
X194717936Y-82920000D02*
X195172064Y-82920000D01*
%LPC*%
D12*
X119265000Y-99850000D03*
D13*
X119265000Y-102390000D03*
X119265000Y-104930000D03*
X119265000Y-107470000D03*
X119265000Y-110010000D03*
X119265000Y-112550000D03*
D12*
X144665000Y-102390000D03*
X139585000Y-102390000D03*
D13*
X144665000Y-104930000D03*
X139585000Y-104930000D03*
X144665000Y-107470000D03*
X139585000Y-107470000D03*
X139585000Y-110010000D03*
X144665000Y-110010000D03*
G36*
G01*
X142250000Y-119075000D02*
X142250000Y-117625000D01*
G75*
G02*
X142500000Y-117375000I250000J0D01*
G01*
X143700000Y-117375000D01*
G75*
G02*
X143950000Y-117625000I0J-250000D01*
G01*
X143950000Y-119075000D01*
G75*
G02*
X143700000Y-119325000I-250000J0D01*
G01*
X142500000Y-119325000D01*
G75*
G02*
X142250000Y-119075000I0J250000D01*
G01*
G37*
D14*
X145600000Y-118350000D03*
X148100000Y-118350000D03*
D15*
X162909300Y-86155000D03*
D16*
X162909300Y-81155000D03*
D17*
X198584000Y-84157500D03*
D18*
X198584000Y-81657500D03*
X198584000Y-79157500D03*
D12*
X134600000Y-97200000D03*
X128250000Y-102280000D03*
X128250000Y-104820000D03*
X124100000Y-97200000D03*
X128250000Y-107360000D03*
X134600000Y-115200000D03*
X124100000Y-115200000D03*
D19*
X196600000Y-91200000D03*
D20*
X199225000Y-91200000D03*
X198456155Y-93056155D03*
X196600000Y-88575000D03*
X196600000Y-93825000D03*
X194743845Y-89343845D03*
X198456155Y-89343845D03*
X193975000Y-91200000D03*
X194743845Y-93056155D03*
D21*
X156600000Y-115600000D03*
X156600000Y-121600000D03*
D13*
X154000000Y-119100000D03*
X159200000Y-119100000D03*
X159200000Y-122500000D03*
X154000000Y-122500000D03*
X154000000Y-115600000D03*
X159200000Y-115600000D03*
D15*
X131794300Y-86200000D03*
D16*
X131794300Y-81200000D03*
D20*
X199225000Y-121200000D03*
D19*
X196600000Y-121200000D03*
D20*
X196600000Y-123825000D03*
X194743845Y-119343845D03*
X193975000Y-121200000D03*
X198456155Y-123056155D03*
X198456155Y-119343845D03*
X196600000Y-118575000D03*
X194743845Y-123056155D03*
G36*
G01*
X108875000Y-102600000D02*
X110325000Y-102600000D01*
G75*
G02*
X110575000Y-102850000I0J-250000D01*
G01*
X110575000Y-104050000D01*
G75*
G02*
X110325000Y-104300000I-250000J0D01*
G01*
X108875000Y-104300000D01*
G75*
G02*
X108625000Y-104050000I0J250000D01*
G01*
X108625000Y-102850000D01*
G75*
G02*
X108875000Y-102600000I250000J0D01*
G01*
G37*
D22*
X109600000Y-105950000D03*
X109600000Y-108450000D03*
X109600000Y-110950000D03*
D12*
X181550000Y-114450000D03*
X176550000Y-111050000D03*
X176550000Y-103850000D03*
X181550000Y-100450000D03*
X199550000Y-114450000D03*
X199550000Y-100450000D03*
X176550000Y-114450000D03*
X176550000Y-100450000D03*
D20*
X104743845Y-119343845D03*
X103975000Y-121200000D03*
D19*
X106600000Y-121200000D03*
D20*
X108456155Y-123056155D03*
X109225000Y-121200000D03*
X106600000Y-123825000D03*
X108456155Y-119343845D03*
X104743845Y-123056155D03*
X106600000Y-118575000D03*
D23*
X179040000Y-81200000D03*
X123430000Y-81200000D03*
D24*
X188050000Y-81200000D03*
X115150000Y-81200000D03*
D19*
X106600000Y-91200000D03*
D20*
X103975000Y-91200000D03*
X106600000Y-88575000D03*
X108456155Y-93056155D03*
X109225000Y-91200000D03*
X104743845Y-89343845D03*
X106600000Y-93825000D03*
X108456155Y-89343845D03*
X104743845Y-93056155D03*
D12*
X172520000Y-119060000D03*
D25*
X175060000Y-119060000D03*
X177600000Y-119060000D03*
X180140000Y-119060000D03*
X182680000Y-119060000D03*
X185220000Y-119060000D03*
X187760000Y-119060000D03*
X190300000Y-119060000D03*
X190300000Y-96200000D03*
X187760000Y-96200000D03*
X185220000Y-96200000D03*
X182680000Y-96200000D03*
X180140000Y-96200000D03*
X177600000Y-96200000D03*
X175060000Y-96200000D03*
X172520000Y-96200000D03*
G36*
G01*
X113125000Y-101675000D02*
X113125000Y-100725000D01*
G75*
G02*
X113375000Y-100475000I250000J0D01*
G01*
X114050000Y-100475000D01*
G75*
G02*
X114300000Y-100725000I0J-250000D01*
G01*
X114300000Y-101675000D01*
G75*
G02*
X114050000Y-101925000I-250000J0D01*
G01*
X113375000Y-101925000D01*
G75*
G02*
X113125000Y-101675000I0J250000D01*
G01*
G37*
G36*
G01*
X115200000Y-101675000D02*
X115200000Y-100725000D01*
G75*
G02*
X115450000Y-100475000I250000J0D01*
G01*
X116125000Y-100475000D01*
G75*
G02*
X116375000Y-100725000I0J-250000D01*
G01*
X116375000Y-101675000D01*
G75*
G02*
X116125000Y-101925000I-250000J0D01*
G01*
X115450000Y-101925000D01*
G75*
G02*
X115200000Y-101675000I0J250000D01*
G01*
G37*
G36*
G01*
X193345000Y-80295000D02*
X193345000Y-79395000D01*
G75*
G02*
X193595000Y-79145000I250000J0D01*
G01*
X194295000Y-79145000D01*
G75*
G02*
X194545000Y-79395000I0J-250000D01*
G01*
X194545000Y-80295000D01*
G75*
G02*
X194295000Y-80545000I-250000J0D01*
G01*
X193595000Y-80545000D01*
G75*
G02*
X193345000Y-80295000I0J250000D01*
G01*
G37*
G36*
G01*
X195345000Y-80295000D02*
X195345000Y-79395000D01*
G75*
G02*
X195595000Y-79145000I250000J0D01*
G01*
X196295000Y-79145000D01*
G75*
G02*
X196545000Y-79395000I0J-250000D01*
G01*
X196545000Y-80295000D01*
G75*
G02*
X196295000Y-80545000I-250000J0D01*
G01*
X195595000Y-80545000D01*
G75*
G02*
X195345000Y-80295000I0J250000D01*
G01*
G37*
G36*
G01*
X194411000Y-101341000D02*
X194411000Y-102291000D01*
G75*
G02*
X194161000Y-102541000I-250000J0D01*
G01*
X193486000Y-102541000D01*
G75*
G02*
X193236000Y-102291000I0J250000D01*
G01*
X193236000Y-101341000D01*
G75*
G02*
X193486000Y-101091000I250000J0D01*
G01*
X194161000Y-101091000D01*
G75*
G02*
X194411000Y-101341000I0J-250000D01*
G01*
G37*
G36*
G01*
X192336000Y-101341000D02*
X192336000Y-102291000D01*
G75*
G02*
X192086000Y-102541000I-250000J0D01*
G01*
X191411000Y-102541000D01*
G75*
G02*
X191161000Y-102291000I0J250000D01*
G01*
X191161000Y-101341000D01*
G75*
G02*
X191411000Y-101091000I250000J0D01*
G01*
X192086000Y-101091000D01*
G75*
G02*
X192336000Y-101341000I0J-250000D01*
G01*
G37*
G36*
G01*
X180670000Y-114320000D02*
X180670000Y-115220000D01*
G75*
G02*
X180420000Y-115470000I-250000J0D01*
G01*
X179720000Y-115470000D01*
G75*
G02*
X179470000Y-115220000I0J250000D01*
G01*
X179470000Y-114320000D01*
G75*
G02*
X179720000Y-114070000I250000J0D01*
G01*
X180420000Y-114070000D01*
G75*
G02*
X180670000Y-114320000I0J-250000D01*
G01*
G37*
G36*
G01*
X178670000Y-114320000D02*
X178670000Y-115220000D01*
G75*
G02*
X178420000Y-115470000I-250000J0D01*
G01*
X177720000Y-115470000D01*
G75*
G02*
X177470000Y-115220000I0J250000D01*
G01*
X177470000Y-114320000D01*
G75*
G02*
X177720000Y-114070000I250000J0D01*
G01*
X178420000Y-114070000D01*
G75*
G02*
X178670000Y-114320000I0J-250000D01*
G01*
G37*
G36*
G01*
X183820000Y-122205000D02*
X183820000Y-121305000D01*
G75*
G02*
X184070000Y-121055000I250000J0D01*
G01*
X184770000Y-121055000D01*
G75*
G02*
X185020000Y-121305000I0J-250000D01*
G01*
X185020000Y-122205000D01*
G75*
G02*
X184770000Y-122455000I-250000J0D01*
G01*
X184070000Y-122455000D01*
G75*
G02*
X183820000Y-122205000I0J250000D01*
G01*
G37*
G36*
G01*
X185820000Y-122205000D02*
X185820000Y-121305000D01*
G75*
G02*
X186070000Y-121055000I250000J0D01*
G01*
X186770000Y-121055000D01*
G75*
G02*
X187020000Y-121305000I0J-250000D01*
G01*
X187020000Y-122205000D01*
G75*
G02*
X186770000Y-122455000I-250000J0D01*
G01*
X186070000Y-122455000D01*
G75*
G02*
X185820000Y-122205000I0J250000D01*
G01*
G37*
G36*
G01*
X172905000Y-111773000D02*
X173805000Y-111773000D01*
G75*
G02*
X174055000Y-112023000I0J-250000D01*
G01*
X174055000Y-112723000D01*
G75*
G02*
X173805000Y-112973000I-250000J0D01*
G01*
X172905000Y-112973000D01*
G75*
G02*
X172655000Y-112723000I0J250000D01*
G01*
X172655000Y-112023000D01*
G75*
G02*
X172905000Y-111773000I250000J0D01*
G01*
G37*
G36*
G01*
X172905000Y-113773000D02*
X173805000Y-113773000D01*
G75*
G02*
X174055000Y-114023000I0J-250000D01*
G01*
X174055000Y-114723000D01*
G75*
G02*
X173805000Y-114973000I-250000J0D01*
G01*
X172905000Y-114973000D01*
G75*
G02*
X172655000Y-114723000I0J250000D01*
G01*
X172655000Y-114023000D01*
G75*
G02*
X172905000Y-113773000I250000J0D01*
G01*
G37*
G36*
G01*
X177500000Y-100650000D02*
X177500000Y-99750000D01*
G75*
G02*
X177750000Y-99500000I250000J0D01*
G01*
X178450000Y-99500000D01*
G75*
G02*
X178700000Y-99750000I0J-250000D01*
G01*
X178700000Y-100650000D01*
G75*
G02*
X178450000Y-100900000I-250000J0D01*
G01*
X177750000Y-100900000D01*
G75*
G02*
X177500000Y-100650000I0J250000D01*
G01*
G37*
G36*
G01*
X179500000Y-100650000D02*
X179500000Y-99750000D01*
G75*
G02*
X179750000Y-99500000I250000J0D01*
G01*
X180450000Y-99500000D01*
G75*
G02*
X180700000Y-99750000I0J-250000D01*
G01*
X180700000Y-100650000D01*
G75*
G02*
X180450000Y-100900000I-250000J0D01*
G01*
X179750000Y-100900000D01*
G75*
G02*
X179500000Y-100650000I0J250000D01*
G01*
G37*
G36*
G01*
X191622000Y-106366000D02*
X191922000Y-106366000D01*
G75*
G02*
X192072000Y-106516000I0J-150000D01*
G01*
X192072000Y-107541000D01*
G75*
G02*
X191922000Y-107691000I-150000J0D01*
G01*
X191622000Y-107691000D01*
G75*
G02*
X191472000Y-107541000I0J150000D01*
G01*
X191472000Y-106516000D01*
G75*
G02*
X191622000Y-106366000I150000J0D01*
G01*
G37*
G36*
G01*
X192572000Y-106366000D02*
X192872000Y-106366000D01*
G75*
G02*
X193022000Y-106516000I0J-150000D01*
G01*
X193022000Y-107541000D01*
G75*
G02*
X192872000Y-107691000I-150000J0D01*
G01*
X192572000Y-107691000D01*
G75*
G02*
X192422000Y-107541000I0J150000D01*
G01*
X192422000Y-106516000D01*
G75*
G02*
X192572000Y-106366000I150000J0D01*
G01*
G37*
G36*
G01*
X193522000Y-106366000D02*
X193822000Y-106366000D01*
G75*
G02*
X193972000Y-106516000I0J-150000D01*
G01*
X193972000Y-107541000D01*
G75*
G02*
X193822000Y-107691000I-150000J0D01*
G01*
X193522000Y-107691000D01*
G75*
G02*
X193372000Y-107541000I0J150000D01*
G01*
X193372000Y-106516000D01*
G75*
G02*
X193522000Y-106366000I150000J0D01*
G01*
G37*
G36*
G01*
X193522000Y-108641000D02*
X193822000Y-108641000D01*
G75*
G02*
X193972000Y-108791000I0J-150000D01*
G01*
X193972000Y-109816000D01*
G75*
G02*
X193822000Y-109966000I-150000J0D01*
G01*
X193522000Y-109966000D01*
G75*
G02*
X193372000Y-109816000I0J150000D01*
G01*
X193372000Y-108791000D01*
G75*
G02*
X193522000Y-108641000I150000J0D01*
G01*
G37*
G36*
G01*
X192572000Y-108641000D02*
X192872000Y-108641000D01*
G75*
G02*
X193022000Y-108791000I0J-150000D01*
G01*
X193022000Y-109816000D01*
G75*
G02*
X192872000Y-109966000I-150000J0D01*
G01*
X192572000Y-109966000D01*
G75*
G02*
X192422000Y-109816000I0J150000D01*
G01*
X192422000Y-108791000D01*
G75*
G02*
X192572000Y-108641000I150000J0D01*
G01*
G37*
G36*
G01*
X191622000Y-108641000D02*
X191922000Y-108641000D01*
G75*
G02*
X192072000Y-108791000I0J-150000D01*
G01*
X192072000Y-109816000D01*
G75*
G02*
X191922000Y-109966000I-150000J0D01*
G01*
X191622000Y-109966000D01*
G75*
G02*
X191472000Y-109816000I0J150000D01*
G01*
X191472000Y-108791000D01*
G75*
G02*
X191622000Y-108641000I150000J0D01*
G01*
G37*
G36*
G01*
X135585000Y-104160000D02*
X135585000Y-105060000D01*
G75*
G02*
X135335000Y-105310000I-250000J0D01*
G01*
X134635000Y-105310000D01*
G75*
G02*
X134385000Y-105060000I0J250000D01*
G01*
X134385000Y-104160000D01*
G75*
G02*
X134635000Y-103910000I250000J0D01*
G01*
X135335000Y-103910000D01*
G75*
G02*
X135585000Y-104160000I0J-250000D01*
G01*
G37*
G36*
G01*
X133585000Y-104160000D02*
X133585000Y-105060000D01*
G75*
G02*
X133335000Y-105310000I-250000J0D01*
G01*
X132635000Y-105310000D01*
G75*
G02*
X132385000Y-105060000I0J250000D01*
G01*
X132385000Y-104160000D01*
G75*
G02*
X132635000Y-103910000I250000J0D01*
G01*
X133335000Y-103910000D01*
G75*
G02*
X133585000Y-104160000I0J-250000D01*
G01*
G37*
G36*
G01*
X176817000Y-105779000D02*
X177767000Y-105779000D01*
G75*
G02*
X178017000Y-106029000I0J-250000D01*
G01*
X178017000Y-106704000D01*
G75*
G02*
X177767000Y-106954000I-250000J0D01*
G01*
X176817000Y-106954000D01*
G75*
G02*
X176567000Y-106704000I0J250000D01*
G01*
X176567000Y-106029000D01*
G75*
G02*
X176817000Y-105779000I250000J0D01*
G01*
G37*
G36*
G01*
X176817000Y-107854000D02*
X177767000Y-107854000D01*
G75*
G02*
X178017000Y-108104000I0J-250000D01*
G01*
X178017000Y-108779000D01*
G75*
G02*
X177767000Y-109029000I-250000J0D01*
G01*
X176817000Y-109029000D01*
G75*
G02*
X176567000Y-108779000I0J250000D01*
G01*
X176567000Y-108104000D01*
G75*
G02*
X176817000Y-107854000I250000J0D01*
G01*
G37*
G36*
G01*
X135610000Y-107310000D02*
X135610000Y-108260000D01*
G75*
G02*
X135360000Y-108510000I-250000J0D01*
G01*
X134685000Y-108510000D01*
G75*
G02*
X134435000Y-108260000I0J250000D01*
G01*
X134435000Y-107310000D01*
G75*
G02*
X134685000Y-107060000I250000J0D01*
G01*
X135360000Y-107060000D01*
G75*
G02*
X135610000Y-107310000I0J-250000D01*
G01*
G37*
G36*
G01*
X133535000Y-107310000D02*
X133535000Y-108260000D01*
G75*
G02*
X133285000Y-108510000I-250000J0D01*
G01*
X132610000Y-108510000D01*
G75*
G02*
X132360000Y-108260000I0J250000D01*
G01*
X132360000Y-107310000D01*
G75*
G02*
X132610000Y-107060000I250000J0D01*
G01*
X133285000Y-107060000D01*
G75*
G02*
X133535000Y-107310000I0J-250000D01*
G01*
G37*
G36*
G01*
X180010000Y-122205000D02*
X180010000Y-121305000D01*
G75*
G02*
X180260000Y-121055000I250000J0D01*
G01*
X180960000Y-121055000D01*
G75*
G02*
X181210000Y-121305000I0J-250000D01*
G01*
X181210000Y-122205000D01*
G75*
G02*
X180960000Y-122455000I-250000J0D01*
G01*
X180260000Y-122455000D01*
G75*
G02*
X180010000Y-122205000I0J250000D01*
G01*
G37*
G36*
G01*
X182010000Y-122205000D02*
X182010000Y-121305000D01*
G75*
G02*
X182260000Y-121055000I250000J0D01*
G01*
X182960000Y-121055000D01*
G75*
G02*
X183210000Y-121305000I0J-250000D01*
G01*
X183210000Y-122205000D01*
G75*
G02*
X182960000Y-122455000I-250000J0D01*
G01*
X182260000Y-122455000D01*
G75*
G02*
X182010000Y-122205000I0J250000D01*
G01*
G37*
G36*
G01*
X187630000Y-122205000D02*
X187630000Y-121305000D01*
G75*
G02*
X187880000Y-121055000I250000J0D01*
G01*
X188580000Y-121055000D01*
G75*
G02*
X188830000Y-121305000I0J-250000D01*
G01*
X188830000Y-122205000D01*
G75*
G02*
X188580000Y-122455000I-250000J0D01*
G01*
X187880000Y-122455000D01*
G75*
G02*
X187630000Y-122205000I0J250000D01*
G01*
G37*
G36*
G01*
X189630000Y-122205000D02*
X189630000Y-121305000D01*
G75*
G02*
X189880000Y-121055000I250000J0D01*
G01*
X190580000Y-121055000D01*
G75*
G02*
X190830000Y-121305000I0J-250000D01*
G01*
X190830000Y-122205000D01*
G75*
G02*
X190580000Y-122455000I-250000J0D01*
G01*
X189880000Y-122455000D01*
G75*
G02*
X189630000Y-122205000I0J250000D01*
G01*
G37*
G36*
G01*
X187622000Y-103491000D02*
X187922000Y-103491000D01*
G75*
G02*
X188072000Y-103641000I0J-150000D01*
G01*
X188072000Y-104816000D01*
G75*
G02*
X187922000Y-104966000I-150000J0D01*
G01*
X187622000Y-104966000D01*
G75*
G02*
X187472000Y-104816000I0J150000D01*
G01*
X187472000Y-103641000D01*
G75*
G02*
X187622000Y-103491000I150000J0D01*
G01*
G37*
G36*
G01*
X189522000Y-103491000D02*
X189822000Y-103491000D01*
G75*
G02*
X189972000Y-103641000I0J-150000D01*
G01*
X189972000Y-104816000D01*
G75*
G02*
X189822000Y-104966000I-150000J0D01*
G01*
X189522000Y-104966000D01*
G75*
G02*
X189372000Y-104816000I0J150000D01*
G01*
X189372000Y-103641000D01*
G75*
G02*
X189522000Y-103491000I150000J0D01*
G01*
G37*
G36*
G01*
X188572000Y-105366000D02*
X188872000Y-105366000D01*
G75*
G02*
X189022000Y-105516000I0J-150000D01*
G01*
X189022000Y-106691000D01*
G75*
G02*
X188872000Y-106841000I-150000J0D01*
G01*
X188572000Y-106841000D01*
G75*
G02*
X188422000Y-106691000I0J150000D01*
G01*
X188422000Y-105516000D01*
G75*
G02*
X188572000Y-105366000I150000J0D01*
G01*
G37*
G36*
G01*
X175919000Y-106431000D02*
X175919000Y-106731000D01*
G75*
G02*
X175769000Y-106881000I-150000J0D01*
G01*
X174594000Y-106881000D01*
G75*
G02*
X174444000Y-106731000I0J150000D01*
G01*
X174444000Y-106431000D01*
G75*
G02*
X174594000Y-106281000I150000J0D01*
G01*
X175769000Y-106281000D01*
G75*
G02*
X175919000Y-106431000I0J-150000D01*
G01*
G37*
G36*
G01*
X175919000Y-108331000D02*
X175919000Y-108631000D01*
G75*
G02*
X175769000Y-108781000I-150000J0D01*
G01*
X174594000Y-108781000D01*
G75*
G02*
X174444000Y-108631000I0J150000D01*
G01*
X174444000Y-108331000D01*
G75*
G02*
X174594000Y-108181000I150000J0D01*
G01*
X175769000Y-108181000D01*
G75*
G02*
X175919000Y-108331000I0J-150000D01*
G01*
G37*
G36*
G01*
X174044000Y-107381000D02*
X174044000Y-107681000D01*
G75*
G02*
X173894000Y-107831000I-150000J0D01*
G01*
X172719000Y-107831000D01*
G75*
G02*
X172569000Y-107681000I0J150000D01*
G01*
X172569000Y-107381000D01*
G75*
G02*
X172719000Y-107231000I150000J0D01*
G01*
X173894000Y-107231000D01*
G75*
G02*
X174044000Y-107381000I0J-150000D01*
G01*
G37*
G36*
G01*
X172880000Y-101482500D02*
X173830000Y-101482500D01*
G75*
G02*
X174080000Y-101732500I0J-250000D01*
G01*
X174080000Y-102407500D01*
G75*
G02*
X173830000Y-102657500I-250000J0D01*
G01*
X172880000Y-102657500D01*
G75*
G02*
X172630000Y-102407500I0J250000D01*
G01*
X172630000Y-101732500D01*
G75*
G02*
X172880000Y-101482500I250000J0D01*
G01*
G37*
G36*
G01*
X172880000Y-103557500D02*
X173830000Y-103557500D01*
G75*
G02*
X174080000Y-103807500I0J-250000D01*
G01*
X174080000Y-104482500D01*
G75*
G02*
X173830000Y-104732500I-250000J0D01*
G01*
X172880000Y-104732500D01*
G75*
G02*
X172630000Y-104482500I0J250000D01*
G01*
X172630000Y-103807500D01*
G75*
G02*
X172880000Y-103557500I250000J0D01*
G01*
G37*
G36*
G01*
X163010000Y-118910000D02*
X162110000Y-118910000D01*
G75*
G02*
X161860000Y-118660000I0J250000D01*
G01*
X161860000Y-117960000D01*
G75*
G02*
X162110000Y-117710000I250000J0D01*
G01*
X163010000Y-117710000D01*
G75*
G02*
X163260000Y-117960000I0J-250000D01*
G01*
X163260000Y-118660000D01*
G75*
G02*
X163010000Y-118910000I-250000J0D01*
G01*
G37*
G36*
G01*
X163010000Y-116910000D02*
X162110000Y-116910000D01*
G75*
G02*
X161860000Y-116660000I0J250000D01*
G01*
X161860000Y-115960000D01*
G75*
G02*
X162110000Y-115710000I250000J0D01*
G01*
X163010000Y-115710000D01*
G75*
G02*
X163260000Y-115960000I0J-250000D01*
G01*
X163260000Y-116660000D01*
G75*
G02*
X163010000Y-116910000I-250000J0D01*
G01*
G37*
G36*
G01*
X113150000Y-110650000D02*
X113150000Y-109750000D01*
G75*
G02*
X113400000Y-109500000I250000J0D01*
G01*
X114100000Y-109500000D01*
G75*
G02*
X114350000Y-109750000I0J-250000D01*
G01*
X114350000Y-110650000D01*
G75*
G02*
X114100000Y-110900000I-250000J0D01*
G01*
X113400000Y-110900000D01*
G75*
G02*
X113150000Y-110650000I0J250000D01*
G01*
G37*
G36*
G01*
X115150000Y-110650000D02*
X115150000Y-109750000D01*
G75*
G02*
X115400000Y-109500000I250000J0D01*
G01*
X116100000Y-109500000D01*
G75*
G02*
X116350000Y-109750000I0J-250000D01*
G01*
X116350000Y-110650000D01*
G75*
G02*
X116100000Y-110900000I-250000J0D01*
G01*
X115400000Y-110900000D01*
G75*
G02*
X115150000Y-110650000I0J250000D01*
G01*
G37*
G36*
G01*
X194347000Y-103691000D02*
X194347000Y-104641000D01*
G75*
G02*
X194097000Y-104891000I-250000J0D01*
G01*
X193422000Y-104891000D01*
G75*
G02*
X193172000Y-104641000I0J250000D01*
G01*
X193172000Y-103691000D01*
G75*
G02*
X193422000Y-103441000I250000J0D01*
G01*
X194097000Y-103441000D01*
G75*
G02*
X194347000Y-103691000I0J-250000D01*
G01*
G37*
G36*
G01*
X192272000Y-103691000D02*
X192272000Y-104641000D01*
G75*
G02*
X192022000Y-104891000I-250000J0D01*
G01*
X191347000Y-104891000D01*
G75*
G02*
X191097000Y-104641000I0J250000D01*
G01*
X191097000Y-103691000D01*
G75*
G02*
X191347000Y-103441000I250000J0D01*
G01*
X192022000Y-103441000D01*
G75*
G02*
X192272000Y-103691000I0J-250000D01*
G01*
G37*
G36*
G01*
X113150000Y-104650000D02*
X113150000Y-103750000D01*
G75*
G02*
X113400000Y-103500000I250000J0D01*
G01*
X114100000Y-103500000D01*
G75*
G02*
X114350000Y-103750000I0J-250000D01*
G01*
X114350000Y-104650000D01*
G75*
G02*
X114100000Y-104900000I-250000J0D01*
G01*
X113400000Y-104900000D01*
G75*
G02*
X113150000Y-104650000I0J250000D01*
G01*
G37*
G36*
G01*
X115150000Y-104650000D02*
X115150000Y-103750000D01*
G75*
G02*
X115400000Y-103500000I250000J0D01*
G01*
X116100000Y-103500000D01*
G75*
G02*
X116350000Y-103750000I0J-250000D01*
G01*
X116350000Y-104650000D01*
G75*
G02*
X116100000Y-104900000I-250000J0D01*
G01*
X115400000Y-104900000D01*
G75*
G02*
X115150000Y-104650000I0J250000D01*
G01*
G37*
G36*
G01*
X178775000Y-86819999D02*
X178775000Y-85570001D01*
G75*
G02*
X179025001Y-85320000I250001J0D01*
G01*
X179949999Y-85320000D01*
G75*
G02*
X180200000Y-85570001I0J-250001D01*
G01*
X180200000Y-86819999D01*
G75*
G02*
X179949999Y-87070000I-250001J0D01*
G01*
X179025001Y-87070000D01*
G75*
G02*
X178775000Y-86819999I0J250001D01*
G01*
G37*
G36*
G01*
X181750000Y-86819999D02*
X181750000Y-85570001D01*
G75*
G02*
X182000001Y-85320000I250001J0D01*
G01*
X182924999Y-85320000D01*
G75*
G02*
X183175000Y-85570001I0J-250001D01*
G01*
X183175000Y-86819999D01*
G75*
G02*
X182924999Y-87070000I-250001J0D01*
G01*
X182000001Y-87070000D01*
G75*
G02*
X181750000Y-86819999I0J250001D01*
G01*
G37*
G36*
G01*
X113150000Y-107650000D02*
X113150000Y-106750000D01*
G75*
G02*
X113400000Y-106500000I250000J0D01*
G01*
X114100000Y-106500000D01*
G75*
G02*
X114350000Y-106750000I0J-250000D01*
G01*
X114350000Y-107650000D01*
G75*
G02*
X114100000Y-107900000I-250000J0D01*
G01*
X113400000Y-107900000D01*
G75*
G02*
X113150000Y-107650000I0J250000D01*
G01*
G37*
G36*
G01*
X115150000Y-107650000D02*
X115150000Y-106750000D01*
G75*
G02*
X115400000Y-106500000I250000J0D01*
G01*
X116100000Y-106500000D01*
G75*
G02*
X116350000Y-106750000I0J-250000D01*
G01*
X116350000Y-107650000D01*
G75*
G02*
X116100000Y-107900000I-250000J0D01*
G01*
X115400000Y-107900000D01*
G75*
G02*
X115150000Y-107650000I0J250000D01*
G01*
G37*
G36*
G01*
X152215000Y-118910000D02*
X151315000Y-118910000D01*
G75*
G02*
X151065000Y-118660000I0J250000D01*
G01*
X151065000Y-117960000D01*
G75*
G02*
X151315000Y-117710000I250000J0D01*
G01*
X152215000Y-117710000D01*
G75*
G02*
X152465000Y-117960000I0J-250000D01*
G01*
X152465000Y-118660000D01*
G75*
G02*
X152215000Y-118910000I-250000J0D01*
G01*
G37*
G36*
G01*
X152215000Y-116910000D02*
X151315000Y-116910000D01*
G75*
G02*
X151065000Y-116660000I0J250000D01*
G01*
X151065000Y-115960000D01*
G75*
G02*
X151315000Y-115710000I250000J0D01*
G01*
X152215000Y-115710000D01*
G75*
G02*
X152465000Y-115960000I0J-250000D01*
G01*
X152465000Y-116660000D01*
G75*
G02*
X152215000Y-116910000I-250000J0D01*
G01*
G37*
G36*
G01*
X113150000Y-113650000D02*
X113150000Y-112750000D01*
G75*
G02*
X113400000Y-112500000I250000J0D01*
G01*
X114100000Y-112500000D01*
G75*
G02*
X114350000Y-112750000I0J-250000D01*
G01*
X114350000Y-113650000D01*
G75*
G02*
X114100000Y-113900000I-250000J0D01*
G01*
X113400000Y-113900000D01*
G75*
G02*
X113150000Y-113650000I0J250000D01*
G01*
G37*
G36*
G01*
X115150000Y-113650000D02*
X115150000Y-112750000D01*
G75*
G02*
X115400000Y-112500000I250000J0D01*
G01*
X116100000Y-112500000D01*
G75*
G02*
X116350000Y-112750000I0J-250000D01*
G01*
X116350000Y-113650000D01*
G75*
G02*
X116100000Y-113900000I-250000J0D01*
G01*
X115400000Y-113900000D01*
G75*
G02*
X115150000Y-113650000I0J250000D01*
G01*
G37*
G36*
G01*
X190322000Y-108716000D02*
X190322000Y-109616000D01*
G75*
G02*
X190072000Y-109866000I-250000J0D01*
G01*
X189372000Y-109866000D01*
G75*
G02*
X189122000Y-109616000I0J250000D01*
G01*
X189122000Y-108716000D01*
G75*
G02*
X189372000Y-108466000I250000J0D01*
G01*
X190072000Y-108466000D01*
G75*
G02*
X190322000Y-108716000I0J-250000D01*
G01*
G37*
G36*
G01*
X188322000Y-108716000D02*
X188322000Y-109616000D01*
G75*
G02*
X188072000Y-109866000I-250000J0D01*
G01*
X187372000Y-109866000D01*
G75*
G02*
X187122000Y-109616000I0J250000D01*
G01*
X187122000Y-108716000D01*
G75*
G02*
X187372000Y-108466000I250000J0D01*
G01*
X188072000Y-108466000D01*
G75*
G02*
X188322000Y-108716000I0J-250000D01*
G01*
G37*
G36*
G01*
X193345000Y-84105000D02*
X193345000Y-83205000D01*
G75*
G02*
X193595000Y-82955000I250000J0D01*
G01*
X194295000Y-82955000D01*
G75*
G02*
X194545000Y-83205000I0J-250000D01*
G01*
X194545000Y-84105000D01*
G75*
G02*
X194295000Y-84355000I-250000J0D01*
G01*
X193595000Y-84355000D01*
G75*
G02*
X193345000Y-84105000I0J250000D01*
G01*
G37*
G36*
G01*
X195345000Y-84105000D02*
X195345000Y-83205000D01*
G75*
G02*
X195595000Y-82955000I250000J0D01*
G01*
X196295000Y-82955000D01*
G75*
G02*
X196545000Y-83205000I0J-250000D01*
G01*
X196545000Y-84105000D01*
G75*
G02*
X196295000Y-84355000I-250000J0D01*
G01*
X195595000Y-84355000D01*
G75*
G02*
X195345000Y-84105000I0J250000D01*
G01*
G37*
M02*
